<svg width="1400" height="776" viewBox="0 0 1400 776" fill="none" xmlns="http://www.w3.org/2000/svg">
<g clip-path="url(#clip0_3404_1570)">
<path d="M544.255 326.505C547.896 320.252 552.846 315.365 559.104 311.858C565.362 308.351 572.203 306.59 579.644 306.59C588.156 306.59 595.738 308.7 602.374 312.905C609.011 317.111 613.819 323.077 616.814 330.805H601.05C598.985 326.552 596.101 323.394 592.412 321.3C588.723 319.221 584.467 318.174 579.644 318.174C574.347 318.174 569.634 319.38 565.488 321.76C561.342 324.156 558.111 327.584 555.762 332.074C553.429 336.549 552.247 341.77 552.247 347.72C552.247 353.671 553.414 358.876 555.762 363.367C558.095 367.841 561.342 371.301 565.488 373.729C569.634 376.156 574.347 377.378 579.644 377.378C584.483 377.378 588.739 376.331 592.412 374.252C596.101 372.174 598.97 369 601.05 364.747H616.814C613.819 372.475 609.011 378.41 602.374 382.583C595.738 386.756 588.156 388.835 579.644 388.835C572.125 388.835 565.252 387.074 559.041 383.567C552.83 380.06 547.896 375.173 544.255 368.921C540.614 362.668 538.785 355.591 538.785 347.72C538.785 339.85 540.614 332.773 544.255 326.52V326.505Z" fill="#090909"/>
<path d="M627.216 338.898C629.865 333.963 633.475 330.107 638.03 327.377C642.601 324.632 647.646 323.268 653.163 323.268C658.144 323.268 662.495 324.251 666.231 326.219C669.951 328.187 672.93 330.646 675.153 333.582V324.315H688.394V388.137H675.153V378.632C672.93 381.647 669.904 384.154 666.057 386.17C662.227 388.185 657.845 389.184 652.942 389.184C647.488 389.184 642.507 387.772 637.983 384.964C633.459 382.139 629.865 378.204 627.216 373.142C624.568 368.08 623.244 362.351 623.244 355.94C623.244 349.53 624.568 343.849 627.216 338.914V338.898ZM672.441 344.69C670.644 341.453 668.28 338.977 665.364 337.279C662.448 335.581 659.295 334.724 655.922 334.724C652.548 334.724 649.395 335.55 646.479 337.216C643.563 338.882 641.199 341.31 639.402 344.515C637.605 347.721 636.69 351.529 636.69 355.925C636.69 360.32 637.589 364.192 639.402 367.508C641.199 370.825 643.579 373.364 646.542 375.093C649.49 376.839 652.627 377.696 655.922 377.696C659.216 377.696 662.448 376.839 665.364 375.141C668.28 373.443 670.644 370.952 672.441 367.667C674.239 364.382 675.153 360.542 675.153 356.147C675.153 351.751 674.254 347.927 672.441 344.674V344.69Z" fill="#090909"/>
<path d="M744.795 326.394C748.751 328.472 751.825 331.567 754.064 335.661C756.286 339.755 757.405 344.69 757.405 350.482V388.137H744.401V352.465C744.401 346.753 742.982 342.373 740.145 339.31C737.307 336.264 733.429 334.74 728.527 334.74C723.625 334.74 719.731 336.264 716.846 339.31C713.962 342.357 712.527 346.737 712.527 352.465V388.137H699.412V324.315H712.527V331.614C714.671 328.996 717.414 326.949 720.756 325.473C724.097 324.013 727.644 323.268 731.396 323.268C736.377 323.268 740.854 324.315 744.795 326.394Z" fill="#090909"/>
<path d="M767.447 338.898C770.095 333.963 773.705 330.107 778.261 327.378C782.832 324.633 787.908 323.268 793.504 323.268C797.65 323.268 801.732 324.172 805.752 325.997C809.787 327.806 812.987 330.218 815.368 333.233V302.417H828.609V388.138H815.368V378.521C813.224 381.616 810.245 384.155 806.446 386.17C802.647 388.185 798.296 389.185 793.378 389.185C787.861 389.185 782.816 387.773 778.245 384.964C773.674 382.139 770.08 378.204 767.431 373.142C764.783 368.08 763.459 362.352 763.459 355.941C763.459 349.53 764.783 343.849 767.431 338.914L767.447 338.898ZM812.672 344.69C810.875 341.453 808.511 338.978 805.594 337.28C802.678 335.582 799.526 334.725 796.152 334.725C792.779 334.725 789.626 335.55 786.71 337.216C783.794 338.882 781.429 341.31 779.632 344.516C777.835 347.721 776.921 351.529 776.921 355.925C776.921 360.32 777.819 364.192 779.632 367.509C781.429 370.825 783.809 373.364 786.773 375.094C789.721 376.839 792.858 377.696 796.152 377.696C799.447 377.696 802.678 376.839 805.594 375.141C808.511 373.443 810.875 370.952 812.672 367.667C814.469 364.383 815.383 360.543 815.383 356.147C815.383 351.752 814.485 347.927 812.672 344.674V344.69Z" fill="#090909"/>
<path d="M838.556 313.414C836.948 311.795 836.145 309.78 836.145 307.384C836.145 304.987 836.948 302.988 838.556 301.354C840.164 299.735 842.166 298.926 844.546 298.926C846.927 298.926 848.802 299.735 850.41 301.354C852.018 302.972 852.822 304.987 852.822 307.384C852.822 309.78 852.018 311.779 850.41 313.414C848.802 315.032 846.848 315.841 844.546 315.841C842.245 315.841 840.18 315.032 838.556 313.414ZM850.978 324.299V388.121H837.863V324.315H850.978V324.299Z" fill="#090909"/>
<path d="M861.601 338.898C864.25 333.963 867.859 330.107 872.415 327.378C876.986 324.633 882.062 323.268 887.658 323.268C891.804 323.268 895.887 324.172 899.906 325.997C903.942 327.806 907.142 330.218 909.522 333.233V302.417H922.763V388.138H909.522V378.521C907.378 381.616 904.399 384.155 900.6 386.17C896.801 388.185 892.45 389.185 887.532 389.185C882.015 389.185 876.971 387.773 872.399 384.964C867.828 382.139 864.234 378.204 861.586 373.142C858.937 368.08 857.613 362.352 857.613 355.941C857.613 349.53 858.937 343.849 861.586 338.914L861.601 338.898ZM906.826 344.69C905.029 341.453 902.665 338.978 899.749 337.28C896.832 335.582 893.68 334.725 890.306 334.725C886.933 334.725 883.78 335.55 880.864 337.216C877.948 338.882 875.583 341.31 873.786 344.516C871.989 347.721 871.075 351.529 871.075 355.925C871.075 360.32 871.974 364.192 873.786 367.509C875.583 370.825 877.964 373.364 880.927 375.094C883.875 376.839 887.012 377.696 890.306 377.696C893.601 377.696 896.832 376.839 899.749 375.141C902.665 373.443 905.029 370.952 906.826 367.667C908.623 364.383 909.538 360.543 909.538 356.147C909.538 351.752 908.639 347.927 906.826 344.674V344.69Z" fill="#090909"/>
<path d="M991.429 361.145H942.988C943.367 366.239 945.258 370.333 948.632 373.427C952.005 376.521 956.151 378.061 961.053 378.061C968.115 378.061 973.096 375.093 976.012 369.143H990.168C988.245 375.014 984.777 379.822 979.748 383.567C974.72 387.312 968.493 389.184 961.053 389.184C954.984 389.184 949.562 387.82 944.77 385.074C939.977 382.329 936.21 378.473 933.499 373.49C930.772 368.508 929.416 362.732 929.416 356.178C929.416 349.625 930.74 343.849 933.388 338.866C936.037 333.883 939.757 330.043 944.549 327.345C949.341 324.648 954.842 323.283 961.069 323.283C967.295 323.283 972.387 324.6 977.069 327.219C981.75 329.837 985.392 333.534 988.008 338.279C990.609 343.023 991.918 348.498 991.918 354.671C991.918 357.067 991.76 359.225 991.461 361.161L991.429 361.145ZM978.188 350.481C978.109 345.61 976.391 341.722 973.002 338.787C969.628 335.851 965.451 334.391 960.454 334.391C955.93 334.391 952.052 335.835 948.836 338.739C945.621 341.643 943.698 345.562 943.083 350.497H978.188V350.481Z" fill="#090909"/>
<path d="M499.391 316.111V492.186H324.481C306.337 492.186 291.598 477.349 291.598 459.084V283.01H466.508C484.652 283.01 499.391 297.847 499.391 316.111Z" fill="#01956E"/>
<path d="M482.683 349.91C482.683 398.372 443.653 437.662 395.512 437.662C395.512 389.2 434.542 349.91 482.683 349.91Z" fill="#090909"/>
<path d="M395.511 383.011V437.677C347.37 437.677 308.34 398.388 308.34 349.926H362.645C380.804 349.926 395.527 364.747 395.527 383.027L395.511 383.011Z" fill="#090909"/>
<path d="M580.788 458.795H556.71L550.504 470.545H540.657L571.438 412.955H582.36L592.786 470.545H582.857L580.788 458.795ZM579.547 451.431L574.831 424.373L560.599 451.431H579.547ZM615.563 431.738C617.549 429.531 620.059 427.738 623.093 426.359C626.127 424.925 629.354 424.208 632.774 424.208C636.304 424.208 639.393 424.953 642.041 426.442C644.744 427.931 646.84 430.055 648.33 432.813C649.819 435.516 650.564 438.716 650.564 442.412C650.564 444.011 650.398 445.722 650.067 447.542C649.24 452.12 647.558 456.23 645.02 459.871C642.538 463.456 639.476 466.27 635.835 468.311C632.25 470.297 628.471 471.29 624.499 471.29C620.969 471.29 617.963 470.6 615.48 469.221C612.998 467.842 611.122 466.077 609.854 463.925L608.695 470.545H599.262L610.102 409.314H619.535L615.563 431.738ZM640.469 447.542C640.69 446.494 640.8 445.363 640.8 444.149C640.8 440.453 639.697 437.585 637.49 435.544C635.339 433.448 632.608 432.4 629.299 432.4C626.927 432.4 624.555 433.006 622.183 434.22C619.866 435.434 617.852 437.199 616.142 439.516C614.432 441.833 613.301 444.563 612.75 447.707C612.529 448.756 612.419 449.886 612.419 451.1C612.419 454.796 613.494 457.72 615.646 459.871C617.852 462.022 620.583 463.098 623.837 463.098C626.265 463.098 628.637 462.491 630.953 461.278C633.325 460.009 635.366 458.188 637.077 455.816C638.787 453.444 639.917 450.686 640.469 447.542ZM669.656 471.29C666.512 471.29 663.643 470.766 661.05 469.717C658.458 468.614 656.417 467.097 654.927 465.167C653.438 463.181 652.693 460.919 652.693 458.381C652.693 457.94 652.748 457.333 652.859 456.561H662.043C661.823 458.657 662.457 460.395 663.947 461.774C665.436 463.153 667.532 463.843 670.235 463.843C672.883 463.843 675.062 463.374 676.772 462.436C678.482 461.498 679.337 460.119 679.337 458.299C679.337 456.754 678.62 455.513 677.186 454.575C675.807 453.637 673.573 452.589 670.483 451.431C667.56 450.272 665.188 449.197 663.367 448.204C661.547 447.211 659.975 445.859 658.651 444.149C657.327 442.384 656.665 440.205 656.665 437.613C656.665 434.965 657.41 432.648 658.899 430.662C660.444 428.621 662.567 427.049 665.27 425.946C668.029 424.787 671.173 424.208 674.703 424.208C677.903 424.208 680.744 424.76 683.226 425.863C685.764 426.911 687.722 428.428 689.101 430.414C690.535 432.344 691.252 434.579 691.252 437.116C691.252 437.888 691.225 438.468 691.17 438.854H682.233C682.454 436.702 681.819 434.965 680.33 433.641C678.896 432.317 676.827 431.655 674.124 431.655C671.752 431.655 669.821 432.151 668.332 433.144C666.898 434.137 666.181 435.489 666.181 437.199C666.181 438.909 666.925 440.288 668.415 441.336C669.904 442.329 672.193 443.432 675.283 444.646C678.096 445.749 680.385 446.797 682.15 447.79C683.916 448.783 685.433 450.107 686.701 451.762C687.97 453.417 688.604 455.485 688.604 457.968C688.604 460.671 687.777 463.043 686.122 465.084C684.522 467.07 682.288 468.614 679.42 469.717C676.551 470.766 673.297 471.29 669.656 471.29ZM707.816 457.885C707.706 458.657 707.651 459.154 707.651 459.374C707.651 460.533 708.009 461.388 708.726 461.939C709.443 462.436 710.629 462.684 712.284 462.684H718.076L716.67 470.545H709.223C705.582 470.545 702.796 469.828 700.866 468.394C698.935 466.904 697.969 464.56 697.969 461.36C697.969 460.147 698.08 458.988 698.3 457.885L702.769 432.648H697.39L698.714 424.953H704.175L706.161 413.617H715.677L713.691 424.953H724.696L723.372 432.648H712.284L707.816 457.885ZM738.934 432.979C740.809 430.221 743.016 428.069 745.553 426.525C748.146 424.98 751.015 424.208 754.159 424.208L752.421 433.972H750.022C746.381 433.972 743.457 434.882 741.251 436.702C739.044 438.523 737.5 441.667 736.617 446.135L732.314 470.545H722.881L730.908 424.953H740.341L738.934 432.979ZM753.066 447.542C753.893 442.963 755.548 438.909 758.03 435.378C760.568 431.848 763.657 429.117 767.298 427.187C770.939 425.201 774.745 424.208 778.717 424.208C782.302 424.208 785.309 424.925 787.736 426.359C790.163 427.738 791.983 429.476 793.197 431.572L794.355 424.953H803.871L795.845 470.545H786.329L787.57 463.76C785.584 465.911 783.074 467.704 780.04 469.138C777.062 470.573 773.807 471.29 770.277 471.29C766.856 471.29 763.795 470.517 761.092 468.973C758.444 467.428 756.348 465.249 754.803 462.436C753.314 459.567 752.569 456.285 752.569 452.589C752.569 450.934 752.735 449.252 753.066 447.542ZM790.384 447.707C790.604 446.659 790.715 445.528 790.715 444.315C790.715 440.619 789.611 437.723 787.405 435.627C785.253 433.475 782.55 432.4 779.296 432.4C776.869 432.4 774.497 433.006 772.18 434.22C769.863 435.378 767.849 437.116 766.139 439.433C764.429 441.695 763.298 444.398 762.747 447.542C762.526 448.59 762.416 449.721 762.416 450.934C762.416 454.686 763.492 457.664 765.643 459.871C767.849 462.022 770.58 463.098 773.835 463.098C776.262 463.098 778.634 462.491 780.951 461.278C783.268 460.064 785.281 458.299 786.991 455.982C788.701 453.61 789.832 450.852 790.384 447.707ZM806.662 447.707C807.49 443.019 809.145 438.909 811.627 435.378C814.164 431.793 817.281 429.035 820.977 427.104C824.728 425.173 828.783 424.208 833.141 424.208C838.657 424.208 842.987 425.532 846.131 428.18C849.276 430.772 851.069 434.496 851.51 439.35H841.332C840.891 437.089 839.87 435.323 838.271 434.055C836.671 432.786 834.492 432.151 831.734 432.151C827.872 432.151 824.563 433.53 821.805 436.289C819.046 438.992 817.226 442.798 816.343 447.707C816.068 449.473 815.93 450.907 815.93 452.01C815.93 455.651 816.84 458.464 818.66 460.45C820.481 462.381 823.018 463.346 826.273 463.346C831.734 463.346 835.761 460.947 838.353 456.147H848.531C846.38 460.781 843.235 464.477 839.098 467.235C835.016 469.938 830.272 471.29 824.866 471.29C819.129 471.29 814.578 469.662 811.213 466.408C807.848 463.098 806.166 458.63 806.166 453.003C806.166 451.293 806.331 449.528 806.662 447.707ZM866.123 457.885C866.013 458.657 865.958 459.154 865.958 459.374C865.958 460.533 866.316 461.388 867.034 461.939C867.751 462.436 868.937 462.684 870.592 462.684H876.384L874.977 470.545H867.53C863.889 470.545 861.103 469.828 859.173 468.394C857.242 466.904 856.277 464.56 856.277 461.36C856.277 460.147 856.387 458.988 856.608 457.885L861.076 432.648H855.697L857.021 424.953H862.483L864.468 413.617H873.984L871.998 424.953H883.003L881.679 432.648H870.592L866.123 457.885ZM895.09 418.912C893.6 418.912 892.387 418.443 891.449 417.506C890.511 416.568 890.042 415.382 890.042 413.948C890.042 412.017 890.759 410.362 892.194 408.983C893.683 407.549 895.366 406.832 897.241 406.832C898.731 406.832 899.917 407.3 900.799 408.238C901.737 409.176 902.206 410.362 902.206 411.796C902.206 413.727 901.489 415.409 900.054 416.844C898.62 418.223 896.965 418.912 895.09 418.912ZM898.648 424.953L890.622 470.545H881.189L889.215 424.953H898.648ZM920.465 471.29C916.604 471.29 913.211 470.49 910.288 468.89C907.364 467.29 905.075 465.029 903.42 462.105C901.82 459.181 901.02 455.844 901.02 452.093C901.02 446.963 902.206 442.274 904.578 438.026C907.005 433.779 910.315 430.414 914.508 427.931C918.755 425.449 923.472 424.208 928.657 424.208C932.518 424.208 935.938 425.035 938.917 426.69C941.896 428.29 944.213 430.552 945.868 433.475C947.578 436.344 948.433 439.681 948.433 443.487C948.433 448.618 947.192 453.306 944.709 457.554C942.227 461.802 938.862 465.167 934.615 467.649C930.367 470.076 925.651 471.29 920.465 471.29ZM921.624 463.346C924.768 463.346 927.636 462.464 930.229 460.698C932.877 458.878 934.945 456.506 936.435 453.582C937.924 450.603 938.669 447.432 938.669 444.067C938.669 440.26 937.593 437.337 935.442 435.296C933.291 433.2 930.588 432.151 927.333 432.151C924.134 432.151 921.265 433.062 918.728 434.882C916.245 436.647 914.287 439.047 912.853 442.081C911.474 445.06 910.784 448.259 910.784 451.679C910.784 455.375 911.777 458.244 913.763 460.285C915.804 462.326 918.424 463.346 921.624 463.346ZM982.002 424.208C986.801 424.208 990.607 425.504 993.421 428.097C996.289 430.634 997.723 434.303 997.723 439.102C997.723 440.316 997.586 441.833 997.31 443.653L992.511 470.545H983.16L987.711 445.06C987.932 443.515 988.042 442.412 988.042 441.75C988.042 438.716 987.187 436.399 985.477 434.799C983.822 433.2 981.506 432.4 978.527 432.4C974.941 432.4 971.907 433.503 969.425 435.709C966.998 437.861 965.453 440.978 964.791 445.06V444.811L960.24 470.545H950.807L958.833 424.953H968.266L967.356 430.248C969.232 428.373 971.438 426.911 973.976 425.863C976.568 424.76 979.244 424.208 982.002 424.208ZM1025.73 441.833L1046.08 470.545H1033.75L1016.04 444.811L1011.49 470.545H1002.06L1012.24 413.037H1021.67L1017.04 439.267L1044.01 413.037H1055.84L1025.73 441.833ZM1065.84 418.912C1064.35 418.912 1063.14 418.443 1062.2 417.506C1061.26 416.568 1060.79 415.382 1060.79 413.948C1060.79 412.017 1061.51 410.362 1062.94 408.983C1064.43 407.549 1066.12 406.832 1067.99 406.832C1069.48 406.832 1070.67 407.3 1071.55 408.238C1072.49 409.176 1072.96 410.362 1072.96 411.796C1072.96 413.727 1072.24 415.409 1070.81 416.844C1069.37 418.223 1067.72 418.912 1065.84 418.912ZM1069.4 424.953L1061.37 470.545H1051.94L1059.97 424.953H1069.4ZM1084.51 457.885C1084.4 458.657 1084.35 459.154 1084.35 459.374C1084.35 460.533 1084.71 461.388 1085.42 461.939C1086.14 462.436 1087.33 462.684 1088.98 462.684H1094.77L1093.37 470.545H1085.92C1082.28 470.545 1079.49 469.828 1077.56 468.394C1075.63 466.904 1074.67 464.56 1074.67 461.36C1074.67 460.147 1074.78 458.988 1075 457.885L1079.47 432.648H1074.09L1075.41 424.953H1080.87L1082.86 413.617H1092.37L1090.39 424.953H1101.39L1100.07 432.648H1088.98L1084.51 457.885Z" fill="#01956E"/>
</g>
<defs>
<clipPath id="clip0_3404_1570">
<rect width="816.399" height="209.16" fill="white" transform="translate(291.615 283.01)"/>
</clipPath>
</defs>
</svg>