<svg width="1400" height="775" viewBox="0 0 1400 775" fill="none" xmlns="http://www.w3.org/2000/svg">
<path d="M467.437 356.725C473.265 346.782 481.182 339.02 491.188 333.432C501.192 327.848 512.147 325.053 524.054 325.053C537.678 325.053 549.8 328.4 560.417 335.089C571.033 341.783 578.738 351.265 583.523 363.539H558.3C554.985 356.789 550.383 351.754 544.491 348.438C538.599 345.123 531.788 343.467 524.054 343.467C515.583 343.467 508.035 345.372 501.408 349.176C494.778 352.981 489.591 358.445 485.85 365.564C482.105 372.687 480.234 380.974 480.234 390.423C480.234 399.873 482.105 408.165 485.85 415.282C489.593 422.405 494.778 427.898 501.408 431.763C508.035 435.631 515.583 437.565 524.054 437.565C531.788 437.565 538.599 435.907 544.491 432.593C550.383 429.278 554.985 424.246 558.3 417.493H583.523C578.738 429.77 571.033 439.222 560.417 445.852C549.8 452.48 537.678 455.796 524.054 455.796C512.024 455.796 501.039 453.005 491.097 447.418C481.155 441.834 473.265 434.067 467.439 424.125C461.607 414.179 458.693 402.948 458.693 390.425C458.693 377.902 461.607 366.671 467.439 356.727L467.437 356.725Z" fill="#080808"/>
<path d="M600.187 376.428C604.421 368.573 610.189 362.464 617.494 358.105C624.795 353.749 632.869 351.567 641.706 351.567C649.683 351.567 656.649 353.131 662.604 356.263C668.556 359.395 673.311 363.293 676.872 367.958V353.226H698.046V454.69H676.872V439.59C673.311 444.378 668.463 448.369 662.328 451.559C656.187 454.75 649.191 456.347 641.338 456.347C632.622 456.347 624.643 454.109 617.401 449.626C610.157 445.146 604.421 438.885 600.187 430.843C595.952 422.805 593.834 413.69 593.834 403.498C593.834 393.305 595.95 384.286 600.187 376.428ZM672.546 385.636C669.66 380.481 665.886 376.551 661.222 373.85C656.556 371.153 651.523 369.8 646.123 369.8C640.724 369.8 635.689 371.12 631.027 373.758C626.359 376.399 622.585 380.266 619.703 385.358C616.817 390.455 615.376 396.5 615.376 403.498C615.376 410.495 616.817 416.634 619.703 421.911C622.585 427.19 626.39 431.21 631.118 433.973C635.842 436.736 640.844 438.116 646.122 438.116C651.4 438.116 656.554 436.767 661.22 434.066C665.882 431.366 669.658 427.408 672.544 422.188C675.427 416.972 676.871 410.863 676.871 403.866C676.871 396.869 675.427 390.791 672.544 385.636H672.546Z" fill="#080808"/>
<path d="M788.312 356.541C794.631 359.856 799.571 364.768 803.133 371.273C806.693 377.781 808.473 385.636 808.473 394.844V454.69H787.666V397.974C787.666 388.889 785.394 381.925 780.855 377.073C776.313 372.225 770.112 369.8 762.259 369.8C754.405 369.8 748.174 372.225 743.571 377.073C738.969 381.925 736.666 388.891 736.666 397.974V454.69H715.676V353.226H736.666V364.826C740.101 360.653 744.49 357.4 749.83 355.066C755.17 352.735 760.846 351.567 766.861 351.567C774.838 351.567 781.988 353.226 788.311 356.539L788.312 356.541Z" fill="#080808"/>
<path d="M824.537 376.425C828.77 368.571 834.539 362.462 841.844 358.102C849.145 353.746 857.278 351.565 866.239 351.565C872.869 351.565 879.405 353.009 885.849 355.892C892.293 358.778 897.417 362.613 901.222 367.401V318.419H922.396V454.688H901.222V439.403C897.786 444.315 893.029 448.366 886.954 451.556C880.878 454.746 873.911 456.344 866.056 456.344C857.218 456.344 849.145 454.106 841.844 449.623C834.539 445.144 828.772 438.882 824.537 430.84C820.301 422.802 818.184 413.687 818.184 403.495C818.184 393.303 820.3 384.283 824.537 376.425ZM896.896 385.633C894.01 380.478 890.236 376.549 885.571 373.848C880.906 371.15 875.873 369.797 870.473 369.797C865.073 369.797 860.039 371.117 855.376 373.755C850.709 376.396 846.935 380.263 844.052 385.355C841.166 390.452 839.726 396.498 839.726 403.495C839.726 410.492 841.166 416.632 844.052 421.909C846.935 427.188 850.74 431.207 855.467 433.97C860.191 436.733 865.193 438.114 870.471 438.114C875.749 438.114 880.904 436.764 885.57 434.063C890.232 431.364 894.008 427.405 896.894 422.185C899.776 416.97 901.22 410.861 901.22 403.864C901.22 396.866 899.776 390.788 896.894 385.633H896.896Z" fill="#080808"/>
<path d="M938.326 335.916C935.748 333.337 934.459 330.148 934.459 326.339C934.459 322.53 935.748 319.342 938.326 316.763C940.905 314.185 944.094 312.896 947.901 312.896C951.708 312.896 954.714 314.185 957.292 316.763C959.87 319.342 961.159 322.536 961.159 326.339C961.159 330.143 959.87 333.337 957.292 335.916C954.714 338.495 951.584 339.783 947.901 339.783C944.218 339.783 940.905 338.495 938.326 335.916ZM958.212 353.225V454.69H937.221V353.225H958.212Z" fill="#080808"/>
<path d="M975.197 376.425C979.431 368.571 985.199 362.462 992.504 358.102C999.805 353.746 1007.94 351.565 1016.9 351.565C1023.53 351.565 1030.07 353.009 1036.51 355.892C1042.95 358.778 1048.08 362.613 1051.88 367.401V318.419H1073.06V454.688H1051.88V439.403C1048.45 444.315 1043.69 448.366 1037.61 451.556C1031.54 454.748 1024.57 456.344 1016.72 456.344C1007.88 456.344 999.805 454.106 992.504 449.623C985.199 445.144 979.432 438.882 975.197 430.84C970.961 422.802 968.844 413.687 968.844 403.495C968.844 393.303 970.96 384.283 975.197 376.425ZM1047.56 385.633C1044.67 380.478 1040.9 376.549 1036.23 373.848C1031.57 371.15 1026.53 369.797 1021.13 369.797C1015.73 369.797 1010.7 371.117 1006.04 373.755C1001.37 376.396 997.595 380.263 994.712 385.355C991.826 390.452 990.386 396.498 990.386 403.495C990.386 410.492 991.826 416.632 994.712 421.909C997.595 427.188 1001.4 431.207 1006.13 433.97C1010.85 436.733 1015.85 438.114 1021.13 438.114C1026.41 438.114 1031.56 436.764 1036.23 434.063C1040.89 431.364 1044.67 427.405 1047.55 422.185C1050.44 416.97 1051.88 410.861 1051.88 403.864C1051.88 396.866 1050.44 390.788 1047.55 385.633H1047.56Z" fill="#080808"/>
<path d="M1182.93 411.784H1105.41C1106.03 419.886 1109.03 426.396 1114.44 431.303C1119.84 436.215 1126.46 438.669 1134.32 438.669C1145.61 438.669 1153.59 433.944 1158.26 424.489H1180.9C1177.83 433.82 1172.28 441.462 1164.24 447.415C1156.2 453.371 1146.23 456.347 1134.32 456.347C1124.62 456.347 1115.94 454.169 1108.27 449.809C1100.6 445.453 1094.58 439.314 1090.23 431.395C1085.87 423.477 1083.69 414.302 1083.69 403.866C1083.69 393.43 1085.81 384.254 1090.04 376.335C1094.28 368.417 1100.23 362.31 1107.9 358.012C1115.57 353.716 1124.38 351.567 1134.32 351.567C1144.27 351.567 1152.43 353.656 1159.92 357.829C1167.4 362.003 1173.23 367.863 1177.41 375.414C1181.58 382.964 1183.67 391.65 1183.67 401.47C1183.67 405.278 1183.42 408.716 1182.93 411.783L1182.93 411.784ZM1161.75 394.842C1161.63 387.107 1158.87 380.911 1153.47 376.244C1148.07 371.581 1141.38 369.246 1133.4 369.246C1126.16 369.246 1119.96 371.547 1114.8 376.152C1109.65 380.755 1106.58 386.989 1105.6 394.844H1161.75V394.842Z" fill="#080808"/>
<path d="M423.965 316.759V491.001H249.749C231.675 491.001 216.999 476.324 216.999 458.246V284.005H391.216C409.291 284.005 423.965 298.681 423.965 316.759Z" fill="url(#paint0_linear_3413_2113)"/>
<path d="M407.321 350.215C407.321 398.18 368.445 437.063 320.486 437.063C320.486 389.097 359.367 350.215 407.321 350.215Z" fill="black"/>
<path d="M320.486 382.969V437.064C272.531 437.064 233.65 398.181 233.65 350.216H287.738C305.824 350.216 320.487 364.88 320.487 382.97L320.486 382.969Z" fill="black"/>
<defs>
<linearGradient id="paint0_linear_3413_2113" x1="216.999" y1="284.005" x2="423.995" y2="491.001" gradientUnits="userSpaceOnUse">
<stop stop-color="#E71B3A"/>
<stop offset="1" stop-color="#E70B5A"/>
</linearGradient>
</defs>
</svg>