<svg width="1400" height="776" viewBox="0 0 1400 776" fill="none" xmlns="http://www.w3.org/2000/svg">
<g clip-path="url(#clip0_3404_1511)">
<path d="M603.475 328.631C607.084 322.491 612 317.703 618.197 314.268C624.394 310.833 631.192 309.09 638.566 309.09C647.012 309.09 654.517 311.145 661.106 315.283C667.695 319.42 672.454 325.249 675.435 332.821H659.799C657.733 328.657 654.883 325.561 651.248 323.505C647.587 321.45 643.378 320.435 638.592 320.435C633.337 320.435 628.656 321.606 624.551 323.948C620.445 326.29 617.229 329.672 614.902 334.044C612.575 338.441 611.424 343.541 611.424 349.37C611.424 355.199 612.575 360.299 614.902 364.696C617.229 369.094 620.445 372.476 624.551 374.844C628.656 377.238 633.337 378.409 638.592 378.409C643.378 378.409 647.614 377.394 651.248 375.339C654.909 373.283 657.759 370.187 659.799 366.023H675.435C672.481 373.595 667.695 379.424 661.106 383.509C654.517 387.594 647.012 389.65 638.566 389.65C631.114 389.65 624.315 387.933 618.144 384.472C611.973 381.037 607.084 376.249 603.475 370.109C599.867 363.968 598.062 357.046 598.062 349.344C598.062 341.642 599.867 334.694 603.475 328.579V328.631Z" fill="#090909"/>
<path d="M685.71 340.783C688.325 335.943 691.907 332.17 696.431 329.49C700.955 326.81 705.949 325.457 711.44 325.457C716.382 325.457 720.697 326.42 724.383 328.345C728.07 330.271 731.025 332.691 733.222 335.553V326.472H746.348V389.026H733.222V379.71C731.025 382.651 728.018 385.123 724.2 387.1C720.409 389.078 716.068 390.041 711.205 390.041C705.792 390.041 700.85 388.661 696.379 385.903C691.881 383.145 688.325 379.294 685.71 374.324C683.095 369.38 681.762 363.76 681.762 357.463C681.762 351.166 683.069 345.623 685.71 340.783ZM730.554 346.456C728.776 343.281 726.423 340.861 723.547 339.196C720.644 337.531 717.533 336.698 714.186 336.698C710.839 336.698 707.727 337.505 704.825 339.144C701.922 340.783 699.595 343.151 697.817 346.3C696.039 349.448 695.123 353.169 695.123 357.489C695.123 361.808 696.013 365.581 697.817 368.834C699.595 372.086 701.948 374.558 704.903 376.276C707.832 377.967 710.917 378.826 714.212 378.826C717.506 378.826 720.67 377.993 723.573 376.328C726.449 374.662 728.803 372.216 730.581 369.016C732.359 365.789 733.274 362.042 733.274 357.723C733.274 353.403 732.385 349.656 730.581 346.482L730.554 346.456Z" fill="#090909"/>
<path d="M802.281 328.527C806.203 330.583 809.262 333.602 811.459 337.609C813.655 341.616 814.779 346.456 814.779 352.128V389.026H801.888V354.054C801.888 348.459 800.476 344.166 797.678 341.174C794.854 338.181 791.011 336.698 786.147 336.698C781.283 336.698 777.414 338.181 774.563 341.174C771.713 344.166 770.275 348.459 770.275 354.054V389.026H757.279V326.472H770.275V333.628C772.393 331.051 775.112 329.048 778.433 327.617C781.754 326.186 785.258 325.457 788.997 325.457C793.939 325.457 798.358 326.472 802.281 328.527Z" fill="#090909"/>
<path d="M824.714 340.784C827.329 335.944 830.911 332.171 835.435 329.491C839.958 326.811 845.005 325.458 850.549 325.458C854.654 325.458 858.707 326.342 862.708 328.138C866.708 329.907 869.872 332.275 872.226 335.241V305.031H885.352V389.026H872.226V379.607C870.108 382.625 867.153 385.123 863.387 387.101C859.622 389.078 855.308 390.041 850.444 390.041C844.979 390.041 839.958 388.662 835.435 385.904C830.911 383.146 827.329 379.294 824.714 374.325C822.099 369.381 820.766 363.76 820.766 357.463C820.766 351.166 822.073 345.624 824.714 340.784ZM869.558 346.456C867.78 343.282 865.427 340.862 862.551 339.196C859.648 337.531 856.537 336.699 853.19 336.699C849.843 336.699 846.731 337.505 843.828 339.144C840.926 340.784 838.599 343.152 836.821 346.3C835.043 349.449 834.127 353.17 834.127 357.489C834.127 361.809 835.016 365.582 836.821 368.834C838.599 372.087 840.952 374.559 843.907 376.276C846.836 377.967 849.921 378.826 853.216 378.826C856.51 378.826 859.674 377.993 862.577 376.328C865.453 374.663 867.806 372.217 869.585 369.016C871.363 365.79 872.278 362.043 872.278 357.723C872.278 353.404 871.389 349.657 869.585 346.482L869.558 346.456Z" fill="#090909"/>
<path d="M895.238 315.803C893.643 314.216 892.832 312.238 892.832 309.896C892.832 307.554 893.643 305.577 895.238 303.99C896.833 302.402 898.82 301.596 901.173 301.596C903.527 301.596 905.383 302.402 907.004 303.99C908.599 305.577 909.41 307.554 909.41 309.896C909.41 312.238 908.599 314.216 907.004 315.803C905.409 317.39 903.474 318.197 901.173 318.197C898.872 318.197 896.833 317.39 895.238 315.803ZM907.554 326.472V389.025H894.558V326.472H907.554Z" fill="#090909"/>
<path d="M918.064 340.784C920.678 335.944 924.261 332.171 928.784 329.491C933.308 326.811 938.355 325.458 943.898 325.458C948.003 325.458 952.056 326.342 956.057 328.138C960.058 329.907 963.222 332.275 965.575 335.241V305.031H978.702V389.026H965.575V379.607C963.457 382.625 960.502 385.123 956.737 387.101C952.972 389.078 948.657 390.041 943.794 390.041C938.329 390.041 933.308 388.662 928.784 385.904C924.261 383.146 920.678 379.294 918.064 374.325C915.449 369.381 914.115 363.76 914.115 357.463C914.115 351.166 915.423 345.624 918.064 340.784ZM962.908 346.456C961.13 343.282 958.777 340.862 955.9 339.196C952.998 337.531 949.886 336.699 946.539 336.699C943.192 336.699 940.081 337.505 937.178 339.144C934.276 340.784 931.948 343.152 930.17 346.3C928.392 349.449 927.477 353.17 927.477 357.489C927.477 361.809 928.366 365.582 930.17 368.834C931.948 372.087 934.302 374.559 937.257 376.276C940.185 377.967 943.271 378.826 946.565 378.826C949.86 378.826 953.024 377.993 955.926 376.328C958.803 374.663 961.156 372.217 962.934 369.016C964.712 365.79 965.627 362.043 965.627 357.723C965.627 353.404 964.738 349.657 962.934 346.482L962.908 346.456Z" fill="#090909"/>
<path d="M1046.79 362.589H998.757C999.15 367.585 1001.01 371.592 1004.35 374.611C1007.7 377.629 1011.81 379.164 1016.67 379.164C1023.68 379.164 1028.62 376.25 1031.5 370.421H1045.54C1043.63 376.172 1040.2 380.882 1035.21 384.55C1030.21 388.219 1024.04 390.067 1016.67 390.067C1010.65 390.067 1005.27 388.714 1000.54 386.034C995.776 383.354 992.063 379.555 989.344 374.689C986.651 369.797 985.291 364.15 985.291 357.723C985.291 351.296 986.598 345.623 989.239 340.758C991.854 335.866 995.541 332.119 1000.3 329.465C1005.06 326.81 1010.5 325.483 1016.67 325.483C1022.84 325.483 1027.89 326.784 1032.51 329.334C1037.14 331.911 1040.78 335.527 1043.34 340.185C1045.93 344.843 1047.21 350.203 1047.21 356.24C1047.21 358.582 1047.05 360.715 1046.77 362.589H1046.79ZM1033.67 352.155C1033.59 347.393 1031.89 343.568 1028.54 340.68C1025.19 337.817 1021.04 336.36 1016.09 336.36C1011.6 336.36 1007.78 337.791 1004.56 340.627C1001.37 343.464 999.463 347.315 998.862 352.155H1033.67Z" fill="#090909"/>
<path d="M558.996 318.458V491.001H385.607C367.617 491.001 353 476.456 353 458.553V286.01H526.389C544.379 286.01 558.996 300.555 558.996 318.458Z" fill="#5406FF"/>
<path d="M542.418 351.582C542.418 399.07 503.719 437.581 455.998 437.581C455.998 390.093 494.698 351.582 542.418 351.582Z" fill="#090909"/>
<path d="M455.998 384.004V437.581C408.278 437.581 369.578 399.07 369.578 351.582H423.418C441.408 351.582 456.024 366.102 456.024 384.03L455.998 384.004Z" fill="#090909"/>
<path d="M616.314 412.471V466.724H607.371V412.471H616.314Z" fill="#5406FF"/>
<path d="M657.446 425.116C660.14 426.522 662.232 428.603 663.774 431.361C665.317 434.12 666.049 437.45 666.049 441.353V466.724H657.185V442.68C657.185 438.829 656.217 435.889 654.282 433.833C652.347 431.778 649.706 430.737 646.359 430.737C643.013 430.737 640.372 431.778 638.41 433.833C636.449 435.889 635.482 438.855 635.482 442.68V466.724H626.539V423.711H635.482V428.629C636.946 426.86 638.829 425.481 641.104 424.492C643.379 423.503 645.784 423.009 648.347 423.009C651.746 423.009 654.779 423.711 657.499 425.116H657.446Z" fill="#5406FF"/>
<path d="M682.389 465.605C679.696 464.382 677.578 462.716 675.983 460.609C674.414 458.501 673.577 456.159 673.473 453.557H682.729C682.886 455.379 683.775 456.914 685.344 458.111C686.939 459.334 688.952 459.958 691.358 459.958C693.764 459.958 695.803 459.464 697.189 458.501C698.575 457.538 699.255 456.315 699.255 454.806C699.255 453.193 698.497 451.996 696.954 451.215C695.411 450.435 692.953 449.576 689.632 448.639C686.39 447.755 683.749 446.896 681.709 446.063C679.67 445.231 677.892 443.955 676.401 442.238C674.911 440.521 674.179 438.257 674.179 435.447C674.179 433.157 674.859 431.049 676.218 429.15C677.578 427.25 679.513 425.741 682.049 424.648C684.586 423.555 687.488 423.009 690.809 423.009C695.725 423.009 699.673 424.258 702.68 426.704C705.687 429.176 707.282 432.558 707.492 436.8H698.549C698.392 434.874 697.608 433.339 696.196 432.194C694.784 431.049 692.875 430.477 690.469 430.477C688.063 430.477 686.311 430.919 685.056 431.804C683.801 432.689 683.174 433.859 683.174 435.317C683.174 436.462 683.592 437.424 684.429 438.205C685.266 438.986 686.285 439.61 687.488 440.052C688.691 440.495 690.469 441.067 692.822 441.744C695.96 442.576 698.549 443.435 700.562 444.294C702.576 445.152 704.302 446.401 705.792 448.093C707.256 449.758 708.015 451.97 708.067 454.728C708.067 457.174 707.387 459.36 706.027 461.285C704.668 463.211 702.759 464.72 700.249 465.813C697.738 466.906 694.836 467.452 691.515 467.452C688.194 467.452 685.083 466.828 682.363 465.605H682.389Z" fill="#5406FF"/>
<path d="M726.606 430.972V454.781C726.606 456.394 726.972 457.539 727.731 458.241C728.489 458.944 729.797 459.282 731.627 459.282H737.118V466.698H730.058C726.031 466.698 722.946 465.761 720.802 463.888C718.657 462.014 717.585 458.97 717.585 454.755V430.946H712.486V423.686H717.585V412.991H726.606V423.686H737.118V430.946H726.606V430.972Z" fill="#5406FF"/>
<path d="M743.5 433.548C745.304 430.217 747.762 427.641 750.874 425.793C753.985 423.946 757.411 423.035 761.202 423.035C764.602 423.035 767.556 423.686 770.119 425.013C772.655 426.34 774.669 428.005 776.185 429.983V423.738H785.206V466.75H776.185V460.349C774.669 462.379 772.603 464.07 769.988 465.423C767.373 466.776 764.392 467.453 761.045 467.453C757.332 467.453 753.933 466.516 750.848 464.59C747.762 462.691 745.304 460.037 743.5 456.628C741.696 453.219 740.807 449.368 740.807 445.023C740.807 440.677 741.696 436.878 743.5 433.548ZM774.329 437.451C773.1 435.265 771.505 433.6 769.517 432.455C767.53 431.31 765.386 430.737 763.085 430.737C760.784 430.737 758.64 431.31 756.653 432.429C754.665 433.548 753.044 435.187 751.841 437.347C750.612 439.506 749.985 442.056 749.985 445.049C749.985 448.041 750.586 450.617 751.841 452.855C753.07 455.093 754.691 456.784 756.705 457.955C758.718 459.126 760.836 459.698 763.111 459.698C765.386 459.698 767.556 459.126 769.544 457.981C771.531 456.836 773.152 455.171 774.355 452.933C775.558 450.695 776.211 448.119 776.211 445.179C776.211 442.238 775.584 439.636 774.355 437.451H774.329Z" fill="#5406FF"/>
<path d="M834.834 428.083C833.422 425.377 831.461 423.348 828.95 421.968C826.44 420.589 823.538 419.913 820.243 419.913C816.634 419.913 813.418 420.719 810.594 422.333C807.77 423.946 805.548 426.236 803.953 429.202C802.358 432.169 801.547 435.603 801.547 439.506C801.547 443.41 802.331 446.87 803.953 449.863C805.548 452.855 807.77 455.171 810.594 456.784C813.418 458.397 816.634 459.204 820.243 459.204C825.107 459.204 829.055 457.851 832.088 455.145C835.121 452.439 836.978 448.77 837.658 444.138H817.184V437.034H847.228V443.982C846.653 448.197 845.162 452.074 842.73 455.613C840.299 459.152 837.135 461.962 833.239 464.07C829.343 466.178 825.028 467.245 820.269 467.245C815.144 467.245 810.463 466.048 806.227 463.68C801.991 461.312 798.618 458.033 796.16 453.818C793.676 449.602 792.447 444.841 792.447 439.532C792.447 434.224 793.676 429.462 796.16 425.247C798.644 421.032 802.018 417.753 806.28 415.385C810.542 413.017 815.222 411.82 820.269 411.82C826.074 411.82 831.251 413.251 835.749 416.088C840.273 418.924 843.567 422.957 845.607 428.135H834.86L834.834 428.083Z" fill="#5406FF"/>
<path d="M854.185 433.548C855.99 430.217 858.448 427.641 861.559 425.793C864.671 423.946 868.096 423.035 871.888 423.035C875.287 423.035 878.242 423.686 880.804 425.013C883.341 426.34 885.354 428.005 886.871 429.983V423.738H895.892V466.75H886.871V460.349C885.354 462.379 883.289 464.07 880.674 465.423C878.059 466.776 875.078 467.453 871.731 467.453C868.018 467.453 864.619 466.516 861.533 464.59C858.448 462.691 855.99 460.037 854.185 456.628C852.381 453.219 851.492 449.368 851.492 445.023C851.492 440.677 852.381 436.878 854.185 433.548ZM885.014 437.451C883.785 435.265 882.19 433.6 880.203 432.455C878.216 431.31 876.072 430.737 873.771 430.737C871.47 430.737 869.325 431.31 867.338 432.429C865.351 433.548 863.73 435.187 862.527 437.347C861.298 439.506 860.67 442.056 860.67 445.049C860.67 448.041 861.272 450.617 862.527 452.855C863.756 455.093 865.377 456.784 867.39 457.955C869.404 459.126 871.522 459.698 873.797 459.698C876.072 459.698 878.242 459.126 880.229 457.981C882.216 456.836 883.838 455.171 885.04 452.933C886.243 450.695 886.897 448.119 886.897 445.179C886.897 442.238 886.269 439.636 885.04 437.451H885.014Z" fill="#5406FF"/>
<path d="M912.626 465.605C909.932 464.382 907.814 462.716 906.219 460.609C904.65 458.501 903.814 456.159 903.709 453.557H912.965C913.122 455.379 914.011 456.914 915.58 458.111C917.175 459.334 919.189 459.958 921.594 459.958C924 459.958 926.04 459.464 927.425 458.501C928.811 457.538 929.491 456.315 929.491 454.806C929.491 453.193 928.733 451.996 927.19 451.215C925.647 450.435 923.189 449.576 919.869 448.639C916.626 447.755 913.985 446.896 911.946 446.063C909.906 445.231 908.128 443.955 906.638 442.238C905.147 440.521 904.415 438.257 904.415 435.447C904.415 433.157 905.095 431.049 906.455 429.15C907.814 427.25 909.749 425.741 912.286 424.648C914.822 423.555 917.724 423.009 921.045 423.009C925.961 423.009 929.91 424.258 932.917 426.704C935.924 429.176 937.519 432.558 937.728 436.8H928.785C928.628 434.874 927.844 433.339 926.432 432.194C925.02 431.049 923.111 430.477 920.705 430.477C918.3 430.477 916.548 430.919 915.293 431.804C914.038 432.689 913.41 433.859 913.41 435.317C913.41 436.462 913.828 437.424 914.665 438.205C915.502 438.986 916.522 439.61 917.724 440.052C918.927 440.495 920.705 441.067 923.059 441.744C926.197 442.576 928.785 443.435 930.799 444.294C932.812 445.152 934.538 446.401 936.028 448.093C937.493 449.758 938.251 451.97 938.303 454.728C938.303 457.174 937.623 459.36 936.264 461.285C934.904 463.211 932.995 464.72 930.485 465.813C927.975 466.906 925.072 467.452 921.751 467.452C918.43 467.452 915.319 466.828 912.599 465.605H912.626Z" fill="#5406FF"/>
</g>
<defs>
<clipPath id="clip0_3404_1511">
<rect width="694.238" height="204.991" fill="white" transform="translate(353 286.01)"/>
</clipPath>
</defs>
</svg>