<svg width="1400" height="776" viewBox="0 0 1400 776" fill="none" xmlns="http://www.w3.org/2000/svg">
<path d="M604.436 326.622C608 320.496 612.843 315.708 618.967 312.273C625.091 308.837 631.785 307.111 639.066 307.111C647.395 307.111 654.815 309.179 661.309 313.299C667.802 317.418 672.507 323.264 675.438 330.834H660.013C657.992 326.668 655.169 323.575 651.56 321.522C647.95 319.486 643.786 318.46 639.066 318.46C633.883 318.46 629.271 319.641 625.214 321.973C621.157 324.321 617.995 327.679 615.697 332.078C613.414 336.462 612.257 341.577 612.257 347.406C612.257 353.236 613.398 358.335 615.697 362.735C617.98 367.119 621.157 370.508 625.214 372.886C629.271 375.265 633.883 376.462 639.066 376.462C643.801 376.462 647.966 375.436 651.56 373.399C655.169 371.363 657.977 368.254 660.013 364.087H675.438C672.507 371.658 667.802 377.472 661.309 381.561C654.815 385.65 647.395 387.686 639.066 387.686C631.708 387.686 624.983 385.96 618.905 382.525C612.828 379.089 608 374.301 604.436 368.176C600.873 362.051 599.084 355.117 599.084 347.406C599.084 339.696 600.873 332.762 604.436 326.637V326.622Z" fill="#090909"/>
<path d="M685.62 338.762C688.211 333.927 691.743 330.15 696.201 327.476C700.674 324.786 705.61 323.449 711.009 323.449C715.883 323.449 720.141 324.413 723.796 326.341C727.437 328.268 730.352 330.678 732.527 333.554V324.475H745.484V387.001H732.527V377.689C730.352 380.643 727.39 383.099 723.627 385.073C719.878 387.048 715.59 388.027 710.793 388.027C705.456 388.027 700.582 386.644 696.155 383.892C691.728 381.125 688.211 377.269 685.62 372.31C683.028 367.351 681.732 361.739 681.732 355.458C681.732 349.178 683.028 343.612 685.62 338.778V338.762ZM729.874 344.436C728.115 341.265 725.802 338.84 722.948 337.176C720.094 335.513 717.009 334.673 713.708 334.673C710.408 334.673 707.323 335.482 704.469 337.114C701.615 338.746 699.302 341.125 697.543 344.265C695.785 347.406 694.89 351.137 694.89 355.443C694.89 359.749 695.769 363.542 697.543 366.791C699.302 370.04 701.631 372.528 704.531 374.222C707.415 375.932 710.485 376.772 713.708 376.772C716.932 376.772 720.094 375.932 722.948 374.269C725.802 372.606 728.115 370.165 729.874 366.947C731.632 363.729 732.527 359.967 732.527 355.66C732.527 351.354 731.648 347.608 729.874 344.421V344.436Z" fill="#090909"/>
<path d="M800.672 326.512C804.544 328.548 807.552 331.58 809.742 335.591C811.917 339.601 813.012 344.436 813.012 350.111V387.001H800.287V352.054C800.287 346.457 798.898 342.167 796.122 339.166C793.345 336.181 789.551 334.689 784.754 334.689C779.957 334.689 776.147 336.181 773.324 339.166C770.501 342.151 769.097 346.442 769.097 352.054V387.001H756.264V324.475H769.097V331.626C771.195 329.061 773.879 327.056 777.149 325.61C780.419 324.18 783.89 323.449 787.561 323.449C792.435 323.449 796.816 324.475 800.672 326.512Z" fill="#090909"/>
<path d="M822.838 338.763C825.429 333.928 828.962 330.15 833.42 327.476C837.893 324.787 842.86 323.45 848.336 323.45C852.392 323.45 856.388 324.336 860.321 326.124C864.27 327.896 867.401 330.259 869.73 333.213V303.022H882.687V387.002H869.73V377.581C867.632 380.612 864.717 383.1 861 385.074C857.282 387.048 853.025 388.028 848.212 388.028C842.813 388.028 837.877 386.644 833.404 383.893C828.931 381.125 825.414 377.27 822.823 372.311C820.231 367.352 818.936 361.74 818.936 355.459C818.936 349.178 820.231 343.613 822.823 338.778L822.838 338.763ZM867.092 344.437C865.334 341.266 863.02 338.84 860.167 337.177C857.313 335.514 854.228 334.674 850.927 334.674C847.626 334.674 844.541 335.482 841.687 337.115C838.834 338.747 836.52 341.126 834.762 344.266C833.003 347.406 832.109 351.137 832.109 355.443C832.109 359.75 832.988 363.543 834.762 366.792C836.52 370.041 838.849 372.528 841.749 374.223C844.634 375.933 847.703 376.773 850.927 376.773C854.151 376.773 857.313 375.933 860.167 374.27C863.02 372.606 865.334 370.165 867.092 366.947C868.851 363.729 869.746 359.967 869.746 355.661C869.746 351.355 868.866 347.608 867.092 344.421V344.437Z" fill="#090909"/>
<path d="M892.421 313.796C890.847 312.21 890.061 310.236 890.061 307.889C890.061 305.541 890.847 303.582 892.421 301.981C893.994 300.395 895.953 299.603 898.282 299.603C900.611 299.603 902.447 300.395 904.02 301.981C905.594 303.567 906.38 305.541 906.38 307.889C906.38 310.236 905.594 312.195 904.02 313.796C902.447 315.382 900.534 316.175 898.282 316.175C896.03 316.175 894.009 315.382 892.421 313.796ZM904.576 324.461V386.986H891.742V324.476H904.576V324.461Z" fill="#090909"/>
<path d="M914.973 338.763C917.564 333.928 921.097 330.15 925.554 327.476C930.028 324.787 934.995 323.45 940.47 323.45C944.527 323.45 948.522 324.336 952.456 326.124C956.404 327.896 959.536 330.259 961.865 333.213V303.022H974.822V387.002H961.865V377.581C959.767 380.612 956.852 383.1 953.134 385.074C949.417 387.048 945.16 388.028 940.347 388.028C934.948 388.028 930.012 386.644 925.539 383.893C921.066 381.125 917.549 377.27 914.957 372.311C912.366 367.352 911.07 361.74 911.07 355.459C911.07 349.178 912.366 343.613 914.957 338.778L914.973 338.763ZM959.227 344.437C957.469 341.266 955.155 338.84 952.301 337.177C949.448 335.514 946.363 334.674 943.062 334.674C939.761 334.674 936.676 335.482 933.822 337.115C930.969 338.747 928.655 341.126 926.896 344.266C925.138 347.406 924.243 351.137 924.243 355.443C924.243 359.75 925.123 363.543 926.896 366.792C928.655 370.041 930.984 372.528 933.884 374.223C936.768 375.933 939.838 376.773 943.062 376.773C946.286 376.773 949.448 375.933 952.301 374.27C955.155 372.606 957.469 370.165 959.227 366.947C960.986 363.729 961.88 359.967 961.88 355.661C961.88 351.355 961.001 347.608 959.227 344.421V344.437Z" fill="#090909"/>
<path d="M1042.01 360.558H994.609C994.979 365.549 996.83 369.56 1000.13 372.591C1003.43 375.623 1007.49 377.13 1012.29 377.13C1019.2 377.13 1024.07 374.223 1026.92 368.394H1040.78C1038.89 374.146 1035.5 378.856 1030.58 382.525C1025.66 386.194 1019.57 388.028 1012.29 388.028C1006.35 388.028 1001.04 386.691 996.352 384.002C991.663 381.312 987.976 377.535 985.323 372.653C982.655 367.772 981.328 362.113 981.328 355.693C981.328 349.272 982.624 343.613 985.215 338.732C987.807 333.851 991.447 330.088 996.136 327.446C1000.83 324.803 1006.21 323.466 1012.3 323.466C1018.39 323.466 1023.38 324.756 1027.96 327.321C1032.54 329.886 1036.1 333.509 1038.66 338.157C1041.21 342.805 1042.49 348.168 1042.49 354.216C1042.49 356.563 1042.33 358.677 1042.04 360.574L1042.01 360.558ZM1029.05 350.112C1028.98 345.339 1027.29 341.53 1023.98 338.654C1020.68 335.778 1016.59 334.348 1011.7 334.348C1007.27 334.348 1003.48 335.763 1000.33 338.608C997.185 341.453 995.303 345.292 994.702 350.127H1029.05V350.112Z" fill="#090909"/>
<path d="M560.537 316.439V488.937H389.381C371.627 488.937 357.204 474.401 357.204 456.508V284.01H528.361C546.115 284.01 560.537 298.545 560.537 316.439Z" fill="url(#paint0_linear_3404_1534)"/>
<path d="M544.185 349.552C544.185 397.029 505.993 435.521 458.885 435.521C458.885 388.044 497.077 349.552 544.185 349.552Z" fill="#090909"/>
<path d="M458.886 381.981V435.537C411.778 435.537 373.586 397.045 373.586 349.567H426.725C444.495 349.567 458.902 364.087 458.902 381.996L458.886 381.981Z" fill="#090909"/>
<path d="M619.86 410.892L627.576 454.117L650.725 410.892H659.789L631.022 462.957H621.134L610.721 410.892H619.86ZM675.771 463.631C672.275 463.631 669.204 462.907 666.557 461.459C663.91 460.01 661.837 457.963 660.339 455.316C658.891 452.669 658.166 449.647 658.166 446.251C658.166 441.607 659.24 437.361 661.388 433.516C663.585 429.67 666.582 426.624 670.377 424.376C674.223 422.129 678.493 421.005 683.188 421.005C686.684 421.005 689.78 421.754 692.477 423.253C695.174 424.701 697.271 426.749 698.77 429.396C700.318 431.993 701.092 435.014 701.092 438.46C701.092 443.105 699.968 447.35 697.721 451.196C695.473 455.041 692.427 458.088 688.581 460.335C684.736 462.533 680.466 463.631 675.771 463.631ZM676.82 456.44C679.667 456.44 682.264 455.64 684.611 454.042C687.008 452.394 688.881 450.247 690.229 447.6C691.578 444.903 692.252 442.031 692.252 438.985C692.252 435.539 691.278 432.892 689.331 431.044C687.383 429.146 684.936 428.197 681.989 428.197C679.092 428.197 676.495 429.021 674.198 430.669C671.951 432.267 670.178 434.44 668.879 437.187C667.63 439.884 667.006 442.78 667.006 445.877C667.006 449.223 667.905 451.82 669.703 453.668C671.551 455.516 673.923 456.44 676.82 456.44ZM723.843 407.521L714.029 462.957H705.489L715.303 407.521H723.843ZM737.228 451.495C737.128 452.194 737.078 452.644 737.078 452.844C737.078 453.892 737.403 454.667 738.052 455.166C738.701 455.615 739.775 455.84 741.273 455.84H746.517L745.244 462.957H738.501C735.205 462.957 732.683 462.308 730.935 461.009C729.187 459.661 728.313 457.538 728.313 454.642C728.313 453.543 728.413 452.494 728.613 451.495L732.658 428.646H727.789L728.987 421.68H733.932L735.73 411.416H744.345L742.547 421.68H752.51L751.312 428.646H741.273L737.228 451.495ZM753.939 442.131C754.688 437.986 756.186 434.315 758.434 431.119C760.731 427.922 763.528 425.45 766.824 423.702C770.12 421.904 773.566 421.005 777.162 421.005C780.409 421.005 783.13 421.655 785.328 422.953C787.525 424.202 789.173 425.775 790.272 427.673L791.321 421.68H799.936L792.669 462.957H784.054L785.178 456.814C783.38 458.762 781.108 460.385 778.361 461.683C775.664 462.982 772.717 463.631 769.521 463.631C766.425 463.631 763.653 462.932 761.206 461.534C758.808 460.135 756.911 458.163 755.512 455.615C754.164 453.018 753.49 450.047 753.49 446.701C753.49 445.202 753.639 443.679 753.939 442.131ZM787.725 442.281C787.925 441.332 788.025 440.308 788.025 439.209C788.025 435.863 787.026 433.241 785.028 431.343C783.08 429.396 780.633 428.422 777.687 428.422C775.489 428.422 773.342 428.971 771.244 430.07C769.147 431.119 767.324 432.692 765.775 434.789C764.227 436.837 763.203 439.284 762.704 442.131C762.504 443.08 762.404 444.104 762.404 445.202C762.404 448.599 763.378 451.295 765.326 453.293C767.324 455.241 769.796 456.215 772.742 456.215C774.94 456.215 777.087 455.665 779.185 454.567C781.283 453.468 783.105 451.87 784.654 449.772C786.202 447.625 787.226 445.128 787.725 442.281ZM816.472 416.211C815.124 416.211 814.025 415.786 813.176 414.937C812.327 414.088 811.902 413.014 811.902 411.716C811.902 409.968 812.552 408.47 813.85 407.221C815.199 405.923 816.722 405.273 818.42 405.273C819.768 405.273 820.842 405.698 821.641 406.547C822.49 407.396 822.915 408.47 822.915 409.768C822.915 411.516 822.265 413.039 820.967 414.338C819.668 415.587 818.17 416.211 816.472 416.211ZM819.693 421.68L812.427 462.957H803.887L811.153 421.68H819.693ZM838.173 428.946C839.871 426.449 841.868 424.501 844.166 423.103C846.513 421.704 849.11 421.005 851.957 421.005L850.384 429.845H848.211C844.915 429.845 842.268 430.669 840.27 432.317C838.272 433.965 836.874 436.812 836.075 440.857L832.179 462.957H823.639L830.906 421.68H839.446L838.173 428.946ZM877.561 421.005C882.706 421.005 886.801 422.454 889.847 425.35C892.944 428.247 894.492 432.142 894.492 437.037C894.492 438.186 894.367 439.559 894.117 441.157C893.918 442.256 893.568 443.604 893.069 445.202H861.53C861.48 445.552 861.455 446.076 861.455 446.776C861.455 449.722 862.354 452.07 864.152 453.818C866 455.566 868.397 456.44 871.344 456.44C875.988 456.44 879.559 454.517 882.056 450.671H891.271C889.373 454.467 886.576 457.588 882.88 460.035C879.185 462.433 874.914 463.631 870.07 463.631C866.624 463.631 863.602 462.957 861.005 461.609C858.408 460.26 856.386 458.337 854.937 455.84C853.489 453.293 852.765 450.322 852.765 446.925C852.765 445.477 852.915 443.929 853.214 442.281C853.964 438.036 855.487 434.315 857.784 431.119C860.082 427.872 862.928 425.375 866.324 423.627C869.77 421.879 873.516 421.005 877.561 421.005ZM885.577 439.06C885.677 438.161 885.727 437.511 885.727 437.112C885.727 434.365 884.803 432.192 882.955 430.594C881.157 428.996 878.81 428.197 875.913 428.197C872.867 428.197 870.12 429.171 867.673 431.119C865.226 433.066 863.553 435.713 862.654 439.06H885.577Z" fill="#FFD735"/>
<defs>
<linearGradient id="paint0_linear_3404_1534" x1="559.912" y1="488.921" x2="357.205" y2="284.01" gradientUnits="userSpaceOnUse">
<stop stop-color="#FFD735"/>
<stop offset="1" stop-color="#FF9B37"/>
</linearGradient>
</defs>
</svg>