<svg width="1400" height="776" viewBox="0 0 1400 776" fill="none" xmlns="http://www.w3.org/2000/svg">
<path d="M604.436 326.612C608 320.487 612.843 315.699 618.967 312.263C625.091 308.827 631.785 307.102 639.066 307.102C647.395 307.102 654.815 309.169 661.309 313.289C667.802 317.409 672.507 323.254 675.438 330.825H660.013C657.992 326.659 655.169 323.565 651.56 321.513C647.95 319.476 643.786 318.45 639.066 318.45C633.883 318.45 629.271 319.632 625.214 321.964C621.157 324.311 617.995 327.669 615.697 332.069C613.414 336.453 612.257 341.567 612.257 347.397C612.257 353.227 613.398 358.326 615.697 362.725C617.98 367.109 621.157 370.498 625.214 372.877C629.271 375.255 633.883 376.452 639.066 376.452C643.801 376.452 647.966 375.426 651.56 373.39C655.169 371.353 657.977 368.244 660.013 364.078H675.438C672.507 371.649 667.802 377.463 661.309 381.551C654.815 385.64 647.395 387.677 639.066 387.677C631.708 387.677 624.983 385.951 618.905 382.515C612.828 379.08 608 374.291 604.436 368.166C600.873 362.041 599.084 355.108 599.084 347.397C599.084 339.686 600.873 332.753 604.436 326.628V326.612Z" fill="white"/>
<path d="M685.62 338.752C688.211 333.918 691.744 330.14 696.202 327.466C700.675 324.777 705.611 323.44 711.01 323.44C715.884 323.44 720.141 324.404 723.797 326.331C727.437 328.259 730.353 330.669 732.528 333.545V324.466H745.485V386.992H732.528V377.68C730.353 380.633 727.391 383.09 723.627 385.064C719.879 387.038 715.591 388.018 710.794 388.018C705.457 388.018 700.582 386.634 696.155 383.882C691.728 381.115 688.211 377.26 685.62 372.301C683.029 367.341 681.733 361.729 681.733 355.449C681.733 349.168 683.029 343.603 685.62 338.768V338.752ZM729.874 344.427C728.116 341.255 725.802 338.83 722.949 337.167C720.095 335.503 717.01 334.664 713.709 334.664C710.408 334.664 707.323 335.472 704.469 337.105C701.616 338.737 699.302 341.115 697.544 344.256C695.785 347.396 694.89 351.127 694.89 355.433C694.89 359.74 695.77 363.533 697.544 366.782C699.302 370.031 701.631 372.518 704.531 374.213C707.416 375.923 710.485 376.762 713.709 376.762C716.933 376.762 720.095 375.923 722.949 374.259C725.802 372.596 728.116 370.155 729.874 366.937C731.633 363.719 732.528 359.957 732.528 355.651C732.528 351.345 731.648 347.598 729.874 344.411V344.427Z" fill="white"/>
<path d="M800.672 326.502C804.543 328.539 807.551 331.57 809.742 335.581C811.917 339.592 813.012 344.427 813.012 350.101V386.992H800.286V352.044C800.286 346.448 798.898 342.157 796.121 339.157C793.345 336.172 789.55 334.679 784.753 334.679C779.956 334.679 776.146 336.172 773.323 339.157C770.5 342.141 769.097 346.432 769.097 352.044V386.992H756.263V324.466H769.097V331.617C771.195 329.052 773.879 327.046 777.149 325.601C780.419 324.17 783.889 323.44 787.561 323.44C792.435 323.44 796.816 324.466 800.672 326.502Z" fill="white"/>
<path d="M822.838 338.753C825.429 333.918 828.961 330.14 833.419 327.466C837.892 324.777 842.859 323.44 848.335 323.44C852.392 323.44 856.387 324.326 860.32 326.114C864.269 327.886 867.401 330.249 869.73 333.203V303.012H882.687V386.992H869.73V377.571C867.632 380.602 864.717 383.09 860.999 385.064C857.282 387.038 853.024 388.018 848.212 388.018C842.813 388.018 837.877 386.634 833.404 383.883C828.93 381.115 825.414 377.26 822.822 372.301C820.231 367.342 818.935 361.73 818.935 355.449C818.935 349.168 820.231 343.603 822.822 338.768L822.838 338.753ZM867.092 344.427C865.334 341.256 863.02 338.83 860.166 337.167C857.313 335.504 854.228 334.664 850.927 334.664C847.626 334.664 844.541 335.472 841.687 337.105C838.833 338.737 836.52 341.116 834.761 344.256C833.003 347.396 832.108 351.127 832.108 355.433C832.108 359.74 832.987 363.533 834.761 366.782C836.52 370.031 838.849 372.518 841.749 374.213C844.633 375.923 847.703 376.762 850.927 376.762C854.15 376.762 857.313 375.923 860.166 374.26C863.02 372.596 865.334 370.155 867.092 366.937C868.85 363.719 869.745 359.957 869.745 355.651C869.745 351.345 868.866 347.598 867.092 344.411V344.427Z" fill="white"/>
<path d="M892.421 313.786C890.847 312.2 890.061 310.226 890.061 307.878C890.061 305.531 890.847 303.572 892.421 301.971C893.994 300.385 895.953 299.592 898.282 299.592C900.611 299.592 902.447 300.385 904.02 301.971C905.594 303.557 906.38 305.531 906.38 307.878C906.38 310.226 905.594 312.185 904.02 313.786C902.447 315.371 900.534 316.164 898.282 316.164C896.03 316.164 894.009 315.371 892.421 313.786ZM904.576 324.45V386.976H891.742V324.466H904.576V324.45Z" fill="white"/>
<path d="M914.973 338.753C917.565 333.918 921.097 330.14 925.555 327.466C930.028 324.777 934.995 323.44 940.471 323.44C944.528 323.44 948.523 324.326 952.456 326.114C956.405 327.886 959.536 330.249 961.865 333.203V303.012H974.822V386.992H961.865V377.571C959.768 380.602 956.852 383.09 953.135 385.064C949.417 387.038 945.16 388.018 940.348 388.018C934.949 388.018 930.013 386.634 925.539 383.883C921.066 381.115 917.549 377.26 914.958 372.301C912.366 367.342 911.071 361.73 911.071 355.449C911.071 349.168 912.366 343.603 914.958 338.768L914.973 338.753ZM959.228 344.427C957.469 341.256 955.156 338.83 952.302 337.167C949.448 335.504 946.363 334.664 943.062 334.664C939.761 334.664 936.676 335.472 933.823 337.105C930.969 338.737 928.655 341.116 926.897 344.256C925.138 347.396 924.244 351.127 924.244 355.433C924.244 359.74 925.123 363.533 926.897 366.782C928.655 370.031 930.985 372.518 933.884 374.213C936.769 375.923 939.838 376.762 943.062 376.762C946.286 376.762 949.448 375.923 952.302 374.26C955.156 372.596 957.469 370.155 959.228 366.937C960.986 363.719 961.881 359.957 961.881 355.651C961.881 351.345 961.002 347.598 959.228 344.411V344.427Z" fill="white"/>
<path d="M1042.01 360.548H994.61C994.98 365.539 996.831 369.55 1000.13 372.581C1003.43 375.613 1007.49 377.12 1012.29 377.12C1019.2 377.12 1024.07 374.213 1026.93 368.384H1040.78C1038.9 374.136 1035.5 378.846 1030.58 382.515C1025.66 386.184 1019.57 388.018 1012.29 388.018C1006.35 388.018 1001.04 386.681 996.353 383.992C991.664 381.302 987.977 377.525 985.324 372.643C982.656 367.762 981.329 362.103 981.329 355.683C981.329 349.262 982.625 343.603 985.216 338.722C987.808 333.841 991.448 330.078 996.137 327.436C1000.83 324.793 1006.21 323.456 1012.3 323.456C1018.4 323.456 1023.38 324.746 1027.96 327.311C1032.54 329.876 1036.1 333.499 1038.66 338.147C1041.21 342.795 1042.49 348.158 1042.49 354.206C1042.49 356.553 1042.34 358.667 1042.04 360.564L1042.01 360.548ZM1029.05 350.102C1028.98 345.329 1027.3 341.52 1023.98 338.644C1020.68 335.768 1016.59 334.338 1011.7 334.338C1007.27 334.338 1003.48 335.753 1000.33 338.598C997.186 341.442 995.304 345.282 994.703 350.117H1029.05V350.102Z" fill="white"/>
<path d="M560.538 316.429V488.927H389.382C371.627 488.927 357.205 474.391 357.205 456.498V284H528.361C546.115 284 560.538 298.535 560.538 316.429Z" fill="url(#paint0_linear_22_261)"/>
<path d="M544.186 349.542C544.186 397.019 505.994 435.511 458.886 435.511C458.886 388.034 497.078 349.542 544.186 349.542Z" fill="black"/>
<path d="M458.887 381.971V435.527C411.779 435.527 373.586 397.035 373.586 349.558H426.726C444.495 349.558 458.902 364.078 458.902 381.987L458.887 381.971Z" fill="black"/>
<path d="M619.86 410.882L627.576 454.107L650.724 410.882H659.789L631.022 462.947H621.133L610.72 410.882H619.86ZM675.771 463.621C672.275 463.621 669.203 462.897 666.556 461.449C663.909 460.001 661.837 457.953 660.338 455.306C658.89 452.659 658.166 449.638 658.166 446.241C658.166 441.597 659.24 437.352 661.387 433.506C663.585 429.661 666.581 426.614 670.377 424.367C674.222 422.119 678.493 420.996 683.187 420.996C686.683 420.996 689.78 421.745 692.476 423.243C695.173 424.691 697.271 426.739 698.769 429.386C700.317 431.983 701.092 435.004 701.092 438.45C701.092 443.095 699.968 447.34 697.72 451.186C695.473 455.031 692.426 458.078 688.581 460.325C684.735 462.523 680.465 463.621 675.771 463.621ZM676.819 456.43C679.666 456.43 682.263 455.631 684.61 454.033C687.008 452.384 688.881 450.237 690.229 447.59C691.577 444.893 692.252 442.021 692.252 438.975C692.252 435.529 691.278 432.882 689.33 431.034C687.382 429.136 684.935 428.187 681.988 428.187C679.092 428.187 676.495 429.011 674.197 430.659C671.95 432.258 670.177 434.43 668.879 437.177C667.63 439.874 667.006 442.77 667.006 445.867C667.006 449.213 667.905 451.81 669.703 453.658C671.55 455.506 673.923 456.43 676.819 456.43ZM723.842 407.511L714.029 462.947H705.489L715.302 407.511H723.842ZM737.227 451.485C737.128 452.185 737.078 452.634 737.078 452.834C737.078 453.883 737.402 454.657 738.052 455.156C738.701 455.606 739.775 455.83 741.273 455.83H746.517L745.243 462.947H738.501C735.205 462.947 732.683 462.298 730.935 461C729.187 459.651 728.313 457.528 728.313 454.632C728.313 453.533 728.413 452.484 728.612 451.485L732.658 428.637H727.788L728.987 421.67H733.931L735.729 411.407H744.344L742.546 421.67H752.51L751.311 428.637H741.273L737.227 451.485ZM753.939 442.121C754.688 437.976 756.186 434.305 758.433 431.109C760.731 427.913 763.527 425.44 766.824 423.692C770.12 421.894 773.566 420.996 777.162 420.996C780.408 420.996 783.13 421.645 785.327 422.943C787.525 424.192 789.173 425.765 790.272 427.663L791.321 421.67H799.936L792.669 462.947H784.054L785.178 456.804C783.38 458.752 781.107 460.375 778.36 461.674C775.664 462.972 772.717 463.621 769.521 463.621C766.424 463.621 763.652 462.922 761.205 461.524C758.808 460.126 756.91 458.153 755.512 455.606C754.163 453.009 753.489 450.037 753.489 446.691C753.489 445.193 753.639 443.669 753.939 442.121ZM787.725 442.271C787.924 441.322 788.024 440.298 788.024 439.2C788.024 435.853 787.025 433.231 785.028 431.334C783.08 429.386 780.633 428.412 777.686 428.412C775.489 428.412 773.341 428.961 771.244 430.06C769.146 431.109 767.323 432.682 765.775 434.78C764.227 436.827 763.203 439.274 762.703 442.121C762.504 443.07 762.404 444.094 762.404 445.193C762.404 448.589 763.378 451.286 765.325 453.283C767.323 455.231 769.795 456.205 772.742 456.205C774.939 456.205 777.087 455.656 779.184 454.557C781.282 453.458 783.105 451.86 784.653 449.762C786.201 447.615 787.225 445.118 787.725 442.271ZM816.472 416.201C815.123 416.201 814.024 415.777 813.175 414.928C812.326 414.078 811.902 413.005 811.902 411.706C811.902 409.958 812.551 408.46 813.85 407.211C815.198 405.913 816.721 405.264 818.419 405.264C819.768 405.264 820.842 405.688 821.641 406.537C822.49 407.386 822.914 408.46 822.914 409.758C822.914 411.506 822.265 413.03 820.966 414.328C819.668 415.577 818.17 416.201 816.472 416.201ZM819.693 421.67L812.426 462.947H803.886L811.153 421.67H819.693ZM838.172 428.936C839.87 426.439 841.868 424.492 844.165 423.093C846.512 421.695 849.11 420.996 851.956 420.996L850.383 429.835H848.211C844.914 429.835 842.267 430.659 840.27 432.308C838.272 433.956 836.874 436.802 836.074 440.848L832.179 462.947H823.639L830.905 421.67H839.446L838.172 428.936ZM877.561 420.996C882.705 420.996 886.8 422.444 889.847 425.341C892.943 428.237 894.491 432.133 894.491 437.027C894.491 438.176 894.367 439.549 894.117 441.147C893.917 442.246 893.568 443.595 893.068 445.193H861.529C861.479 445.542 861.454 446.067 861.454 446.766C861.454 449.712 862.353 452.06 864.151 453.808C865.999 455.556 868.396 456.43 871.343 456.43C875.988 456.43 879.559 454.507 882.056 450.661H891.27C889.372 454.457 886.576 457.578 882.88 460.026C879.184 462.423 874.914 463.621 870.07 463.621C866.624 463.621 863.602 462.947 861.005 461.599C858.408 460.25 856.385 458.328 854.937 455.83C853.489 453.283 852.764 450.312 852.764 446.916C852.764 445.467 852.914 443.919 853.214 442.271C853.963 438.026 855.486 434.305 857.784 431.109C860.081 427.863 862.928 425.365 866.324 423.618C869.77 421.87 873.516 420.996 877.561 420.996ZM885.577 439.05C885.677 438.151 885.727 437.502 885.727 437.102C885.727 434.355 884.803 432.183 882.955 430.584C881.157 428.986 878.81 428.187 875.913 428.187C872.866 428.187 870.12 429.161 867.672 431.109C865.225 433.057 863.552 435.704 862.653 439.05H885.577Z" fill="#FFD735"/>
<defs>
<linearGradient id="paint0_linear_22_261" x1="559.913" y1="488.911" x2="357.205" y2="284" gradientUnits="userSpaceOnUse">
<stop stop-color="#FFD735"/>
<stop offset="1" stop-color="#FF9B37"/>
</linearGradient>
</defs>
</svg>
