<svg width="1400" height="776" viewBox="0 0 1400 776" fill="none" xmlns="http://www.w3.org/2000/svg">
<g clip-path="url(#clip0_22_293)">
<path d="M544.255 326.495C547.896 320.243 552.846 315.355 559.104 311.849C565.362 308.342 572.203 306.58 579.644 306.58C588.156 306.58 595.738 308.691 602.374 312.896C609.011 317.101 613.819 323.067 616.814 330.795H601.05C598.985 326.543 596.101 323.385 592.412 321.29C588.723 319.211 584.467 318.164 579.644 318.164C574.347 318.164 569.634 319.37 565.488 321.75C561.342 324.147 558.111 327.574 555.762 332.065C553.429 336.54 552.247 341.76 552.247 347.711C552.247 353.662 553.414 358.866 555.762 363.357C558.095 367.832 561.342 371.291 565.488 373.719C569.634 376.147 574.347 377.369 579.644 377.369C584.483 377.369 588.739 376.321 592.412 374.243C596.101 372.164 598.97 368.99 601.05 364.738H616.814C613.819 372.465 609.011 378.4 602.374 382.574C595.738 386.747 588.156 388.826 579.644 388.826C572.125 388.826 565.252 387.064 559.041 383.557C552.83 380.051 547.896 375.163 544.255 368.911C540.614 362.659 538.785 355.582 538.785 347.711C538.785 339.84 540.614 332.763 544.255 326.511V326.495Z" fill="white"/>
<path d="M627.216 338.888C629.865 333.953 633.475 330.097 638.03 327.368C642.601 324.622 647.646 323.258 653.163 323.258C658.144 323.258 662.495 324.242 666.231 326.209C669.951 328.177 672.93 330.637 675.153 333.572V324.305H688.394V388.127H675.153V378.622C672.93 381.637 669.904 384.144 666.057 386.16C662.227 388.175 657.845 389.175 652.942 389.175C647.488 389.175 642.507 387.762 637.983 384.954C633.459 382.129 629.865 378.194 627.216 373.132C624.568 368.07 623.244 362.341 623.244 355.931C623.244 349.52 624.568 343.839 627.216 338.904V338.888ZM672.441 344.68C670.644 341.443 668.28 338.967 665.364 337.27C662.448 335.572 659.295 334.715 655.922 334.715C652.548 334.715 649.395 335.54 646.479 337.206C643.563 338.872 641.199 341.3 639.402 344.505C637.605 347.711 636.69 351.519 636.69 355.915C636.69 360.31 637.589 364.182 639.402 367.499C641.199 370.815 643.579 373.354 646.542 375.084C649.49 376.829 652.627 377.686 655.922 377.686C659.216 377.686 662.448 376.829 665.364 375.131C668.28 373.433 670.644 370.942 672.441 367.657C674.239 364.373 675.153 360.532 675.153 356.137C675.153 351.741 674.254 347.917 672.441 344.664V344.68Z" fill="white"/>
<path d="M744.795 326.384C748.751 328.463 751.825 331.557 754.064 335.651C756.286 339.745 757.405 344.68 757.405 350.472V388.127H744.401V352.455C744.401 346.743 742.982 342.363 740.145 339.301C737.307 336.254 733.429 334.731 728.527 334.731C723.625 334.731 719.731 336.254 716.846 339.301C713.962 342.347 712.527 346.727 712.527 352.455V388.127H699.412V324.305H712.527V331.605C714.671 328.986 717.414 326.939 720.756 325.464C724.097 324.004 727.644 323.258 731.396 323.258C736.377 323.258 740.854 324.305 744.795 326.384Z" fill="white"/>
<path d="M767.447 338.888C770.095 333.953 773.705 330.097 778.261 327.368C782.832 324.623 787.908 323.258 793.504 323.258C797.65 323.258 801.732 324.162 805.752 325.987C809.787 327.796 812.987 330.208 815.368 333.223V302.407H828.609V388.128H815.368V378.511C813.224 381.606 810.245 384.145 806.446 386.16C802.647 388.175 798.296 389.175 793.378 389.175C787.861 389.175 782.816 387.763 778.245 384.954C773.674 382.129 770.08 378.194 767.431 373.132C764.783 368.07 763.459 362.342 763.459 355.931C763.459 349.52 764.783 343.839 767.431 338.904L767.447 338.888ZM812.672 344.68C810.875 341.443 808.511 338.968 805.594 337.27C802.678 335.572 799.526 334.715 796.152 334.715C792.779 334.715 789.626 335.54 786.71 337.206C783.794 338.872 781.429 341.3 779.632 344.506C777.835 347.711 776.921 351.519 776.921 355.915C776.921 360.31 777.819 364.182 779.632 367.499C781.429 370.815 783.809 373.354 786.773 375.084C789.721 376.829 792.858 377.686 796.152 377.686C799.447 377.686 802.678 376.829 805.594 375.131C808.511 373.433 810.875 370.942 812.672 367.657C814.469 364.373 815.383 360.533 815.383 356.137C815.383 351.742 814.485 347.917 812.672 344.664V344.68Z" fill="white"/>
<path d="M838.555 313.404C836.947 311.785 836.144 309.77 836.144 307.374C836.144 304.977 836.947 302.978 838.555 301.344C840.163 299.725 842.165 298.916 844.545 298.916C846.926 298.916 848.801 299.725 850.409 301.344C852.017 302.962 852.821 304.977 852.821 307.374C852.821 309.77 852.017 311.769 850.409 313.404C848.801 315.022 846.847 315.831 844.545 315.831C842.244 315.831 840.179 315.022 838.555 313.404ZM850.977 324.289V388.111H837.862V324.305H850.977V324.289Z" fill="white"/>
<path d="M861.6 338.888C864.249 333.953 867.858 330.097 872.414 327.368C876.985 324.623 882.061 323.258 887.657 323.258C891.803 323.258 895.886 324.162 899.905 325.987C903.941 327.796 907.141 330.208 909.521 333.223V302.407H922.762V388.128H909.521V378.511C907.377 381.606 904.398 384.145 900.599 386.16C896.8 388.175 892.449 389.175 887.531 389.175C882.014 389.175 876.97 387.763 872.398 384.954C867.827 382.129 864.233 378.194 861.585 373.132C858.936 368.07 857.612 362.342 857.612 355.931C857.612 349.52 858.936 343.839 861.585 338.904L861.6 338.888ZM906.825 344.68C905.028 341.443 902.664 338.968 899.748 337.27C896.831 335.572 893.679 334.715 890.305 334.715C886.932 334.715 883.779 335.54 880.863 337.206C877.947 338.872 875.583 341.3 873.785 344.506C871.988 347.711 871.074 351.519 871.074 355.915C871.074 360.31 871.973 364.182 873.785 367.499C875.583 370.815 877.963 373.354 880.926 375.084C883.874 376.829 887.011 377.686 890.305 377.686C893.6 377.686 896.831 376.829 899.748 375.131C902.664 373.433 905.028 370.942 906.825 367.657C908.622 364.373 909.537 360.533 909.537 356.137C909.537 351.742 908.638 347.917 906.825 344.664V344.68Z" fill="white"/>
<path d="M991.429 361.135H942.988C943.367 366.229 945.258 370.323 948.632 373.417C952.005 376.512 956.151 378.051 961.053 378.051C968.115 378.051 973.096 375.084 976.012 369.133H990.168C988.245 375.004 984.777 379.812 979.748 383.557C974.72 387.302 968.493 389.175 961.053 389.175C954.984 389.175 949.562 387.81 944.77 385.065C939.977 382.32 936.21 378.464 933.499 373.481C930.772 368.498 929.416 362.722 929.416 356.169C929.416 349.615 930.74 343.839 933.388 338.856C936.037 333.874 939.757 330.034 944.549 327.336C949.341 324.638 954.842 323.274 961.069 323.274C967.295 323.274 972.387 324.591 977.069 327.209C981.75 329.827 985.392 333.525 988.008 338.269C990.609 343.014 991.918 348.488 991.918 354.661C991.918 357.057 991.76 359.215 991.461 361.151L991.429 361.135ZM978.188 350.472C978.109 345.6 976.391 341.713 973.002 338.777C969.628 335.841 965.451 334.381 960.454 334.381C955.93 334.381 952.052 335.826 948.836 338.729C945.621 341.633 943.698 345.553 943.083 350.488H978.188V350.472Z" fill="white"/>
<path d="M499.391 316.101V492.176H324.481C306.337 492.176 291.598 477.339 291.598 459.075V283H466.508C484.652 283 499.391 297.837 499.391 316.101Z" fill="#01956E"/>
<path d="M482.681 349.901C482.681 398.362 443.651 437.652 395.51 437.652C395.51 389.191 434.54 349.901 482.681 349.901Z" fill="black"/>
<path d="M395.51 383.002V437.668C347.369 437.668 308.339 398.379 308.339 349.917H362.644C380.803 349.917 395.526 364.738 395.526 383.018L395.51 383.002Z" fill="black"/>
<path d="M580.789 458.786H556.711L550.505 470.535H540.658L571.439 412.945H582.361L592.787 470.535H582.858L580.789 458.786ZM579.548 451.421L574.832 424.364L560.6 451.421H579.548ZM615.564 431.728C617.55 429.522 620.06 427.729 623.094 426.35C626.128 424.916 629.355 424.198 632.775 424.198C636.305 424.198 639.394 424.943 642.042 426.433C644.745 427.922 646.841 430.046 648.331 432.804C649.82 435.507 650.565 438.706 650.565 442.402C650.565 444.002 650.399 445.712 650.068 447.532C649.241 452.111 647.558 456.221 645.021 459.861C642.539 463.447 639.477 466.26 635.836 468.301C632.251 470.287 628.472 471.28 624.5 471.28C620.97 471.28 617.964 470.591 615.481 469.211C612.999 467.832 611.123 466.067 609.855 463.916L608.696 470.535H599.263L610.103 409.304H619.536L615.564 431.728ZM640.47 447.532C640.691 446.484 640.801 445.353 640.801 444.14C640.801 440.444 639.698 437.575 637.491 435.534C635.34 433.438 632.609 432.39 629.3 432.39C626.928 432.39 624.555 432.997 622.183 434.211C619.867 435.424 617.853 437.189 616.143 439.506C614.433 441.823 613.302 444.554 612.751 447.698C612.53 448.746 612.42 449.877 612.42 451.09C612.42 454.786 613.495 457.71 615.647 459.861C617.853 462.013 620.584 463.088 623.838 463.088C626.266 463.088 628.638 462.482 630.954 461.268C633.326 459.999 635.367 458.179 637.078 455.807C638.788 453.435 639.918 450.677 640.47 447.532ZM669.657 471.28C666.513 471.28 663.644 470.756 661.051 469.708C658.459 468.605 656.418 467.088 654.928 465.157C653.439 463.171 652.694 460.909 652.694 458.372C652.694 457.931 652.749 457.324 652.86 456.552H662.044C661.824 458.648 662.458 460.385 663.948 461.764C665.437 463.144 667.533 463.833 670.236 463.833C672.884 463.833 675.063 463.364 676.773 462.426C678.483 461.489 679.338 460.11 679.338 458.289C679.338 456.745 678.621 455.503 677.187 454.566C675.808 453.628 673.573 452.58 670.484 451.421C667.561 450.263 665.189 449.187 663.368 448.194C661.548 447.201 659.976 445.85 658.652 444.14C657.328 442.375 656.666 440.196 656.666 437.603C656.666 434.955 657.411 432.638 658.9 430.652C660.445 428.611 662.568 427.039 665.271 425.936C668.03 424.778 671.174 424.198 674.704 424.198C677.904 424.198 680.745 424.75 683.227 425.853C685.765 426.901 687.723 428.418 689.102 430.404C690.536 432.335 691.253 434.569 691.253 437.107C691.253 437.879 691.226 438.458 691.171 438.844H682.234C682.455 436.693 681.82 434.955 680.331 433.631C678.897 432.307 676.828 431.645 674.125 431.645C671.753 431.645 669.822 432.142 668.333 433.135C666.899 434.128 666.182 435.479 666.182 437.189C666.182 438.899 666.926 440.278 668.416 441.327C669.905 442.319 672.194 443.423 675.284 444.636C678.097 445.74 680.386 446.788 682.151 447.781C683.917 448.774 685.434 450.097 686.702 451.752C687.971 453.407 688.605 455.476 688.605 457.958C688.605 460.661 687.778 463.033 686.123 465.074C684.523 467.06 682.289 468.605 679.421 469.708C676.552 470.756 673.298 471.28 669.657 471.28ZM707.817 457.875C707.707 458.648 707.652 459.144 707.652 459.365C707.652 460.523 708.01 461.378 708.727 461.93C709.444 462.426 710.63 462.675 712.285 462.675H718.077L716.671 470.535H709.224C705.583 470.535 702.797 469.818 700.866 468.384C698.936 466.895 697.97 464.55 697.97 461.351C697.97 460.137 698.081 458.979 698.301 457.875L702.77 432.638H697.391L698.715 424.943H704.176L706.162 413.607H715.678L713.692 424.943H724.697L723.373 432.638H712.285L707.817 457.875ZM738.935 432.969C740.81 430.211 743.017 428.06 745.554 426.515C748.147 424.971 751.016 424.198 754.16 424.198L752.422 433.962H750.023C746.382 433.962 743.458 434.872 741.252 436.693C739.045 438.513 737.501 441.658 736.618 446.126L732.315 470.535H722.882L730.909 424.943H740.341L738.935 432.969ZM753.067 447.532C753.894 442.954 755.549 438.899 758.031 435.369C760.569 431.839 763.658 429.108 767.299 427.177C770.94 425.191 774.746 424.198 778.718 424.198C782.303 424.198 785.31 424.916 787.737 426.35C790.164 427.729 791.984 429.466 793.198 431.563L794.356 424.943H803.872L795.846 470.535H786.33L787.571 463.75C785.585 465.902 783.075 467.695 780.041 469.129C777.063 470.563 773.808 471.28 770.278 471.28C766.857 471.28 763.796 470.508 761.093 468.963C758.445 467.419 756.349 465.24 754.804 462.426C753.315 459.558 752.57 456.276 752.57 452.58C752.57 450.925 752.736 449.242 753.067 447.532ZM790.385 447.698C790.605 446.65 790.716 445.519 790.716 444.305C790.716 440.609 789.612 437.713 787.406 435.617C785.254 433.466 782.551 432.39 779.297 432.39C776.87 432.39 774.498 432.997 772.181 434.211C769.864 435.369 767.85 437.107 766.14 439.423C764.43 441.685 763.299 444.388 762.748 447.532C762.527 448.58 762.417 449.711 762.417 450.925C762.417 454.676 763.493 457.655 765.644 459.861C767.85 462.013 770.581 463.088 773.836 463.088C776.263 463.088 778.635 462.482 780.952 461.268C783.268 460.054 785.282 458.289 786.992 455.972C788.702 453.6 789.833 450.842 790.385 447.698ZM806.663 447.698C807.491 443.009 809.146 438.899 811.628 435.369C814.165 431.783 817.282 429.025 820.978 427.094C824.729 425.164 828.784 424.198 833.142 424.198C838.658 424.198 842.988 425.522 846.132 428.17C849.277 430.763 851.07 434.486 851.511 439.341H841.333C840.892 437.079 839.871 435.314 838.272 434.045C836.672 432.776 834.493 432.142 831.735 432.142C827.873 432.142 824.564 433.521 821.805 436.279C819.047 438.982 817.227 442.788 816.344 447.698C816.069 449.463 815.931 450.897 815.931 452.001C815.931 455.641 816.841 458.455 818.661 460.441C820.482 462.371 823.019 463.337 826.274 463.337C831.735 463.337 835.762 460.937 838.354 456.138H848.532C846.381 460.772 843.236 464.467 839.099 467.226C835.017 469.929 830.273 471.28 824.867 471.28C819.13 471.28 814.579 469.653 811.214 466.398C807.849 463.088 806.167 458.62 806.167 452.994C806.167 451.283 806.332 449.518 806.663 447.698ZM866.124 457.875C866.014 458.648 865.959 459.144 865.959 459.365C865.959 460.523 866.317 461.378 867.034 461.93C867.752 462.426 868.938 462.675 870.593 462.675H876.385L874.978 470.535H867.531C863.89 470.535 861.104 469.818 859.174 468.384C857.243 466.895 856.278 464.55 856.278 461.351C856.278 460.137 856.388 458.979 856.609 457.875L861.077 432.638H855.698L857.022 424.943H862.484L864.469 413.607H873.985L871.999 424.943H883.004L881.68 432.638H870.593L866.124 457.875ZM895.091 418.903C893.601 418.903 892.388 418.434 891.45 417.496C890.512 416.558 890.043 415.372 890.043 413.938C890.043 412.007 890.76 410.352 892.195 408.973C893.684 407.539 895.367 406.822 897.242 406.822C898.731 406.822 899.917 407.291 900.8 408.229C901.738 409.166 902.207 410.352 902.207 411.787C902.207 413.717 901.49 415.4 900.055 416.834C898.621 418.213 896.966 418.903 895.091 418.903ZM898.649 424.943L890.623 470.535H881.19L889.216 424.943H898.649ZM920.466 471.28C916.605 471.28 913.212 470.48 910.289 468.881C907.365 467.281 905.076 465.019 903.421 462.095C901.821 459.172 901.021 455.834 901.021 452.083C901.021 446.953 902.207 442.264 904.579 438.017C907.006 433.769 910.316 430.404 914.509 427.922C918.756 425.44 923.473 424.198 928.658 424.198C932.519 424.198 935.939 425.026 938.918 426.681C941.897 428.28 944.214 430.542 945.869 433.466C947.579 436.334 948.434 439.672 948.434 443.478C948.434 448.608 947.193 453.297 944.71 457.544C942.228 461.792 938.863 465.157 934.615 467.639C930.368 470.067 925.651 471.28 920.466 471.28ZM921.625 463.337C924.769 463.337 927.637 462.454 930.23 460.689C932.878 458.868 934.946 456.496 936.436 453.573C937.925 450.594 938.67 447.422 938.67 444.057C938.67 440.251 937.594 437.327 935.443 435.286C933.292 433.19 930.589 432.142 927.334 432.142C924.135 432.142 921.266 433.052 918.729 434.872C916.246 436.638 914.288 439.037 912.854 442.071C911.475 445.05 910.785 448.25 910.785 451.67C910.785 455.366 911.778 458.234 913.764 460.275C915.805 462.316 918.425 463.337 921.625 463.337ZM982.003 424.198C986.802 424.198 990.608 425.495 993.422 428.087C996.29 430.625 997.724 434.293 997.724 439.092C997.724 440.306 997.587 441.823 997.311 443.643L992.512 470.535H983.161L987.712 445.05C987.933 443.505 988.043 442.402 988.043 441.74C988.043 438.706 987.188 436.389 985.478 434.79C983.823 433.19 981.507 432.39 978.528 432.39C974.942 432.39 971.908 433.493 969.426 435.7C966.999 437.851 965.454 440.968 964.792 445.05V444.802L960.241 470.535H950.808L958.834 424.943H968.267L967.357 430.239C969.233 428.363 971.439 426.901 973.977 425.853C976.569 424.75 979.245 424.198 982.003 424.198ZM1025.73 441.823L1046.08 470.535H1033.75L1016.05 444.802L1011.49 470.535H1002.06L1012.24 413.028H1021.67L1017.04 439.258L1044.01 413.028H1055.85L1025.73 441.823ZM1065.84 418.903C1064.35 418.903 1063.14 418.434 1062.2 417.496C1061.26 416.558 1060.79 415.372 1060.79 413.938C1060.79 412.007 1061.51 410.352 1062.95 408.973C1064.44 407.539 1066.12 406.822 1067.99 406.822C1069.48 406.822 1070.67 407.291 1071.55 408.229C1072.49 409.166 1072.96 410.352 1072.96 411.787C1072.96 413.717 1072.24 415.4 1070.81 416.834C1069.37 418.213 1067.72 418.903 1065.84 418.903ZM1069.4 424.943L1061.37 470.535H1051.94L1059.97 424.943H1069.4ZM1084.52 457.875C1084.4 458.648 1084.35 459.144 1084.35 459.365C1084.35 460.523 1084.71 461.378 1085.43 461.93C1086.14 462.426 1087.33 462.675 1088.98 462.675H1094.78L1093.37 470.535H1085.92C1082.28 470.535 1079.5 469.818 1077.56 468.384C1075.63 466.895 1074.67 464.55 1074.67 461.351C1074.67 460.137 1074.78 458.979 1075 457.875L1079.47 432.638H1074.09L1075.41 424.943H1080.87L1082.86 413.607H1092.38L1090.39 424.943H1101.4L1100.07 432.638H1088.98L1084.52 457.875Z" fill="#01956E"/>
</g>
<defs>
<clipPath id="clip0_22_293">
<rect width="816.399" height="209.16" fill="white" transform="translate(291.615 283)"/>
</clipPath>
</defs>
</svg>
