<svg width="1600" height="500" viewBox="0 0 1600 500" fill="none" xmlns="http://www.w3.org/2000/svg">
<path d="M473.334 206.871C481.499 192.941 492.59 182.068 506.606 174.241C520.62 166.418 535.967 162.502 552.647 162.502C571.731 162.502 588.712 167.192 603.586 176.562C618.457 185.938 629.25 199.221 635.954 216.416H600.619C595.976 206.96 589.529 199.906 581.275 195.262C573.021 190.618 563.48 188.298 552.647 188.298C540.78 188.298 530.206 190.967 520.922 196.295C511.636 201.626 504.37 209.28 499.128 219.253C493.882 229.23 491.261 240.839 491.261 254.077C491.261 267.314 493.882 278.93 499.128 288.9C504.372 298.877 511.636 306.572 520.922 311.987C530.206 317.405 540.78 320.115 552.647 320.115C563.48 320.115 573.021 317.792 581.275 313.15C589.529 308.506 595.976 301.458 600.619 291.997H635.954C629.25 309.196 618.457 322.436 603.586 331.724C588.712 341.009 571.731 345.653 552.647 345.653C535.794 345.653 520.406 341.744 506.479 333.917C492.551 326.095 481.499 315.214 473.337 301.287C465.167 287.355 461.086 271.622 461.086 254.079C461.086 236.536 465.167 220.803 473.337 206.873L473.334 206.871Z" fill="#F9F9F9"/>
<path d="M659.297 234.472C665.228 223.468 673.309 214.911 683.542 208.804C693.77 202.702 705.079 199.646 717.459 199.646C728.634 199.646 738.391 201.837 746.734 206.224C755.071 210.611 761.732 216.071 766.722 222.606V201.969H796.383V344.105H766.722V322.951C761.732 329.659 754.942 335.249 746.347 339.718C737.745 344.189 727.945 346.426 716.943 346.426C704.733 346.426 693.556 343.29 683.412 337.01C673.263 330.735 665.228 321.964 659.297 310.699C653.364 299.439 650.398 286.67 650.398 272.392C650.398 258.114 653.362 245.48 659.297 234.472ZM760.661 247.37C756.618 240.149 751.331 234.645 744.798 230.861C738.262 227.082 731.211 225.186 723.647 225.186C716.083 225.186 709.03 227.036 702.499 230.731C695.961 234.431 690.674 239.848 686.636 246.981C682.593 254.121 680.575 262.59 680.575 272.392C680.575 282.194 682.593 290.795 686.636 298.187C690.674 305.582 696.004 311.213 702.627 315.083C709.244 318.954 716.251 320.888 723.645 320.888C731.039 320.888 738.259 318.997 744.795 315.213C751.327 311.432 756.616 305.887 760.659 298.574C764.697 291.268 766.719 282.71 766.719 272.908C766.719 263.106 764.697 254.592 760.659 247.37H760.661Z" fill="#F9F9F9"/>
<path d="M922.831 206.613C931.683 211.257 938.603 218.137 943.592 227.25C948.579 236.367 951.073 247.37 951.073 260.269V344.105H921.926V264.654C921.926 251.928 918.743 242.171 912.384 235.375C906.021 228.583 897.335 225.186 886.334 225.186C875.332 225.186 866.603 228.583 860.156 235.375C853.708 242.171 850.482 251.93 850.482 264.654V344.105H821.078V201.969H850.482V218.219C855.294 212.374 861.443 207.816 868.923 204.547C876.403 201.282 884.354 199.646 892.781 199.646C903.955 199.646 913.972 201.969 922.829 206.61L922.831 206.613Z" fill="#F9F9F9"/>
<path d="M973.576 234.468C979.506 223.464 987.587 214.907 997.82 208.8C1008.05 202.698 1019.44 199.642 1031.99 199.642C1041.28 199.642 1050.44 201.665 1059.46 205.703C1068.49 209.747 1075.67 215.118 1081 221.826V153.21H1110.66V344.101H1081V322.69C1076.19 329.571 1069.52 335.246 1061.01 339.714C1052.5 344.183 1042.74 346.422 1031.74 346.422C1019.36 346.422 1008.05 343.287 997.82 337.007C987.587 330.731 979.509 321.96 973.576 310.695C967.642 299.435 964.676 286.666 964.676 272.388C964.676 258.11 967.64 245.476 973.576 234.468ZM1074.94 247.366C1070.9 240.145 1065.61 234.641 1059.08 230.857C1052.54 227.078 1045.49 225.182 1037.93 225.182C1030.36 225.182 1023.31 227.032 1016.78 230.727C1010.24 234.427 1004.95 239.844 1000.91 246.977C996.871 254.117 994.853 262.586 994.853 272.388C994.853 282.19 996.871 290.791 1000.91 298.183C1004.95 305.578 1010.28 311.209 1016.9 315.079C1023.52 318.95 1030.53 320.884 1037.92 320.884C1045.32 320.884 1052.54 318.993 1059.07 315.209C1065.6 311.428 1070.89 305.883 1074.94 298.57C1078.97 291.264 1081 282.706 1081 272.904C1081 263.102 1078.97 254.588 1074.94 247.366H1074.94Z" fill="#F9F9F9"/>
<path d="M1132.98 177.72C1129.37 174.107 1127.56 169.641 1127.56 164.305C1127.56 158.969 1129.37 154.503 1132.98 150.889C1136.59 147.279 1141.06 145.472 1146.39 145.472C1151.72 145.472 1155.93 147.279 1159.55 150.889C1163.16 154.503 1164.96 158.976 1164.96 164.305C1164.96 169.633 1163.16 174.107 1159.55 177.72C1155.93 181.333 1151.55 183.137 1146.39 183.137C1141.23 183.137 1136.59 181.333 1132.98 177.72ZM1160.83 201.968V344.104H1131.43V201.968H1160.83Z" fill="#F9F9F9"/>
<path d="M1184.63 234.468C1190.56 223.464 1198.64 214.907 1208.87 208.8C1219.1 202.698 1230.49 199.642 1243.05 199.642C1252.33 199.642 1261.49 201.665 1270.52 205.703C1279.54 209.747 1286.72 215.118 1292.05 221.826V153.21H1321.71V344.101H1292.05V322.69C1287.24 329.571 1280.57 335.246 1272.06 339.714C1263.55 344.185 1253.79 346.422 1242.79 346.422C1230.41 346.422 1219.1 343.287 1208.87 337.007C1198.64 330.731 1190.56 321.96 1184.63 310.695C1178.69 299.435 1175.73 286.666 1175.73 272.388C1175.73 258.11 1178.69 245.476 1184.63 234.468ZM1285.99 247.366C1281.95 240.145 1276.66 234.641 1270.13 230.857C1263.59 227.078 1256.54 225.182 1248.98 225.182C1241.41 225.182 1234.36 227.032 1227.83 230.727C1221.29 234.427 1216 239.844 1211.97 246.977C1207.92 254.117 1205.91 262.586 1205.91 272.388C1205.91 282.19 1207.92 290.791 1211.97 298.183C1216 305.578 1221.33 311.209 1227.96 315.079C1234.57 318.95 1241.58 320.884 1248.97 320.884C1256.37 320.884 1263.59 318.993 1270.13 315.209C1276.66 311.428 1281.95 305.883 1285.99 298.57C1290.03 291.264 1292.05 282.706 1292.05 272.904C1292.05 263.102 1290.03 254.588 1285.99 247.366H1285.99Z" fill="#F9F9F9"/>
<path d="M1475.63 284H1367.04C1367.9 295.35 1372.11 304.469 1379.68 311.343C1387.25 318.223 1396.53 321.661 1407.54 321.661C1423.35 321.661 1434.53 315.043 1441.07 301.798H1472.79C1468.49 314.87 1460.71 325.575 1449.45 333.914C1438.18 342.257 1424.21 346.426 1407.54 346.426C1393.95 346.426 1381.79 343.375 1371.04 337.268C1360.29 331.165 1351.87 322.565 1345.77 311.472C1339.66 300.38 1336.61 287.527 1336.61 272.908C1336.61 258.289 1339.57 245.434 1345.51 234.342C1351.44 223.25 1359.78 214.695 1370.53 208.674C1381.27 202.656 1393.61 199.646 1407.54 199.646C1421.47 199.646 1432.9 202.572 1443.39 208.417C1453.88 214.265 1462.04 222.474 1467.89 233.052C1473.74 243.627 1476.66 255.796 1476.66 269.552C1476.66 274.886 1476.32 279.703 1475.63 283.998L1475.63 284ZM1445.96 260.267C1445.79 249.432 1441.92 240.752 1434.36 234.215C1426.79 227.682 1417.42 224.41 1406.25 224.41C1396.1 224.41 1387.42 227.634 1380.2 234.085C1372.97 240.533 1368.67 249.266 1367.3 260.269H1445.96V260.267Z" fill="#F9F9F9"/>
<path d="M412.438 150.883V394.969H168.388C143.069 394.969 122.511 374.41 122.511 349.086V105L366.561 105C391.882 105 412.438 125.559 412.438 150.883Z" fill="url(#paint0_linear_23_18)"/>
<path d="M389.119 197.751C389.119 264.943 334.658 319.411 267.476 319.411C267.476 252.219 321.942 197.751 389.119 197.751Z" fill="black"/>
<path d="M267.476 243.635V319.414C200.299 319.414 145.833 264.946 145.833 197.753H221.601C246.936 197.753 267.478 218.296 267.478 243.637L267.476 243.635Z" fill="black"/>
<defs>
<linearGradient id="paint0_linear_23_18" x1="122.511" y1="105" x2="412.48" y2="394.969" gradientUnits="userSpaceOnUse">
<stop stop-color="#E71B3A"/>
<stop offset="1" stop-color="#E70B5A"/>
</linearGradient>
</defs>
</svg>
