<svg width="1400" height="775" viewBox="0 0 1400 775" fill="none" xmlns="http://www.w3.org/2000/svg">
<g clip-path="url(#clip0_22_245)">
<path d="M603.475 328.622C607.083 322.481 611.999 317.693 618.196 314.258C624.393 310.824 631.192 309.08 638.566 309.08C647.012 309.08 654.516 311.136 661.106 315.273C667.695 319.411 672.454 325.239 675.435 332.811H659.798C657.732 328.648 654.882 325.551 651.248 323.496C647.587 321.44 643.377 320.425 638.592 320.425C633.336 320.425 628.656 321.596 624.55 323.938C620.445 326.28 617.229 329.663 614.902 334.034C612.574 338.432 611.424 343.532 611.424 349.36C611.424 355.189 612.574 360.289 614.902 364.687C617.229 369.084 620.445 372.467 624.55 374.835C628.656 377.229 633.336 378.4 638.592 378.4C643.377 378.4 647.613 377.385 651.248 375.329C654.908 373.274 657.759 370.177 659.798 366.014H675.435C672.48 373.586 667.695 379.414 661.106 383.5C654.516 387.585 647.012 389.641 638.566 389.641C631.113 389.641 624.315 387.923 618.144 384.462C611.973 381.028 607.083 376.24 603.475 370.099C599.866 363.958 598.062 357.037 598.062 349.334C598.062 341.632 599.866 334.685 603.475 328.57V328.622Z" fill="#F9F9F9"/>
<path d="M685.711 340.774C688.325 335.934 691.908 332.161 696.431 329.481C700.955 326.801 705.949 325.448 711.441 325.448C716.383 325.448 720.697 326.41 724.384 328.336C728.071 330.261 731.026 332.681 733.222 335.544V326.462H746.349V389.016H733.222V379.701C731.026 382.641 728.019 385.113 724.201 387.091C720.409 389.068 716.069 390.031 711.205 390.031C705.793 390.031 700.85 388.652 696.379 385.894C691.882 383.136 688.325 379.284 685.711 374.314C683.096 369.371 681.762 363.75 681.762 357.453C681.762 351.156 683.07 345.614 685.711 340.774ZM730.555 346.446C728.777 343.272 726.424 340.852 723.547 339.186C720.645 337.521 717.533 336.688 714.186 336.688C710.839 336.688 707.727 337.495 704.825 339.134C701.923 340.774 699.595 343.142 697.817 346.29C696.039 349.439 695.124 353.16 695.124 357.479C695.124 361.798 696.013 365.572 697.817 368.824C699.595 372.077 701.949 374.549 704.903 376.266C707.832 377.957 710.918 378.816 714.212 378.816C717.507 378.816 720.671 377.983 723.573 376.318C726.45 374.653 728.803 372.207 730.581 369.006C732.359 365.78 733.274 362.033 733.274 357.713C733.274 353.394 732.385 349.647 730.581 346.472L730.555 346.446Z" fill="#F9F9F9"/>
<path d="M802.28 328.518C806.202 330.574 809.261 333.592 811.458 337.599C813.654 341.606 814.778 346.446 814.778 352.119V389.016H801.887V354.044C801.887 348.45 800.475 344.156 797.677 341.164C794.853 338.172 791.01 336.688 786.146 336.688C781.282 336.688 777.413 338.172 774.562 341.164C771.712 344.156 770.274 348.45 770.274 354.044V389.016H757.278V326.462H770.274V333.618C772.392 331.042 775.111 329.038 778.432 327.607C781.753 326.176 785.257 325.448 788.996 325.448C793.938 325.448 798.357 326.462 802.28 328.518Z" fill="#F9F9F9"/>
<path d="M824.715 340.774C827.33 335.934 830.912 332.161 835.436 329.481C839.959 326.801 845.006 325.448 850.55 325.448C854.655 325.448 858.708 326.332 862.708 328.128C866.709 329.897 869.873 332.265 872.227 335.231V305.021H885.353V389.016H872.227V379.597C870.108 382.615 867.154 385.113 863.388 387.091C859.623 389.068 855.309 390.031 850.445 390.031C844.98 390.031 839.959 388.652 835.436 385.894C830.912 383.136 827.33 379.284 824.715 374.314C822.1 369.371 820.767 363.75 820.767 357.453C820.767 351.156 822.074 345.614 824.715 340.774ZM869.559 346.446C867.781 343.272 865.428 340.852 862.552 339.186C859.649 337.521 856.537 336.688 853.19 336.688C849.844 336.688 846.732 337.495 843.829 339.134C840.927 340.774 838.6 343.142 836.822 346.29C835.044 349.439 834.128 353.16 834.128 357.479C834.128 361.799 835.017 365.572 836.822 368.824C838.6 372.077 840.953 374.549 843.908 376.266C846.836 377.957 849.922 378.816 853.217 378.816C856.511 378.816 859.675 377.983 862.578 376.318C865.454 374.653 867.807 372.207 869.585 369.006C871.364 365.78 872.279 362.033 872.279 357.713C872.279 353.394 871.39 349.647 869.585 346.472L869.559 346.446Z" fill="#F9F9F9"/>
<path d="M895.237 315.794C893.642 314.206 892.832 312.229 892.832 309.887C892.832 307.545 893.642 305.568 895.237 303.98C896.832 302.393 898.82 301.586 901.173 301.586C903.526 301.586 905.383 302.393 907.004 303.98C908.599 305.568 909.41 307.545 909.41 309.887C909.41 312.229 908.599 314.206 907.004 315.794C905.409 317.381 903.474 318.188 901.173 318.188C898.872 318.188 896.832 317.381 895.237 315.794ZM907.553 326.462V389.016H894.557V326.462H907.553Z" fill="#F9F9F9"/>
<path d="M918.064 340.774C920.679 335.934 924.261 332.161 928.785 329.481C933.309 326.801 938.355 325.448 943.899 325.448C948.004 325.448 952.057 326.332 956.058 328.128C960.058 329.897 963.222 332.265 965.576 335.231V305.021H978.702V389.016H965.576V379.597C963.458 382.615 960.503 385.113 956.737 387.091C952.972 389.068 948.658 390.031 943.794 390.031C938.329 390.031 933.309 388.652 928.785 385.894C924.261 383.136 920.679 379.284 918.064 374.314C915.449 369.371 914.116 363.75 914.116 357.453C914.116 351.156 915.423 345.614 918.064 340.774ZM962.908 346.446C961.13 343.272 958.777 340.852 955.901 339.186C952.998 337.521 949.887 336.688 946.54 336.688C943.193 336.688 940.081 337.495 937.179 339.134C934.276 340.774 931.949 343.142 930.171 346.29C928.393 349.439 927.478 353.16 927.478 357.479C927.478 361.799 928.367 365.572 930.171 368.824C931.949 372.077 934.302 374.549 937.257 376.266C940.186 377.957 943.271 378.816 946.566 378.816C949.86 378.816 953.024 377.983 955.927 376.318C958.803 374.653 961.157 372.207 962.935 369.006C964.713 365.78 965.628 362.033 965.628 357.713C965.628 353.394 964.739 349.647 962.935 346.472L962.908 346.446Z" fill="#F9F9F9"/>
<path d="M1046.79 362.579H998.758C999.15 367.575 1001.01 371.582 1004.35 374.601C1007.7 377.619 1011.81 379.154 1016.67 379.154C1023.68 379.154 1028.62 376.24 1031.5 370.411H1045.54C1043.63 376.162 1040.2 380.872 1035.21 384.54C1030.21 388.209 1024.04 390.057 1016.67 390.057C1010.66 390.057 1005.27 388.704 1000.54 386.024C995.777 383.344 992.064 379.545 989.345 374.679C986.651 369.787 985.292 364.14 985.292 357.713C985.292 351.286 986.599 345.613 989.24 340.748C991.855 335.856 995.542 332.109 1000.3 329.455C1005.06 326.8 1010.5 325.473 1016.67 325.473C1022.84 325.473 1027.89 326.774 1032.52 329.324C1037.14 331.901 1040.78 335.517 1043.34 340.175C1045.93 344.833 1047.21 350.193 1047.21 356.23C1047.21 358.572 1047.05 360.705 1046.77 362.579H1046.79ZM1033.67 352.145C1033.59 347.383 1031.89 343.558 1028.54 340.67C1025.19 337.807 1021.04 336.35 1016.09 336.35C1011.6 336.35 1007.78 337.781 1004.56 340.617C1001.37 343.454 999.464 347.305 998.862 352.145H1033.67Z" fill="#F9F9F9"/>
<path d="M558.997 318.448V490.991H385.607C367.617 490.991 353 476.446 353 458.544V286H526.39C544.38 286 558.997 300.546 558.997 318.448Z" fill="#5406FF"/>
<path d="M542.418 351.572C542.418 399.06 503.718 437.571 455.998 437.571C455.998 390.083 494.697 351.572 542.418 351.572Z" fill="black"/>
<path d="M455.998 383.994V437.571C408.278 437.571 369.578 399.06 369.578 351.572H423.418C441.408 351.572 456.024 366.092 456.024 384.02L455.998 383.994Z" fill="black"/>
<path d="M616.313 412.461V466.714H607.37V412.461H616.313Z" fill="#5406FF"/>
<path d="M657.445 425.107C660.138 426.512 662.23 428.594 663.773 431.352C665.316 434.11 666.048 437.441 666.048 441.344V466.714H657.183V442.671C657.183 438.82 656.216 435.88 654.281 433.824C652.346 431.768 649.705 430.727 646.358 430.727C643.011 430.727 640.37 431.768 638.409 433.824C636.448 435.88 635.48 438.846 635.48 442.671V466.714H626.538V423.702H635.48V428.62C636.945 426.85 638.827 425.471 641.102 424.482C643.377 423.494 645.783 422.999 648.345 422.999C651.745 422.999 654.778 423.702 657.497 425.107H657.445Z" fill="#5406FF"/>
<path d="M682.388 465.595C679.695 464.372 677.577 462.707 675.982 460.599C674.413 458.492 673.576 456.15 673.472 453.548H682.728C682.885 455.369 683.774 456.904 685.343 458.101C686.938 459.324 688.951 459.949 691.357 459.949C693.763 459.949 695.802 459.454 697.188 458.492C698.574 457.529 699.254 456.306 699.254 454.797C699.254 453.183 698.496 451.986 696.953 451.206C695.41 450.425 692.952 449.566 689.631 448.63C686.389 447.745 683.748 446.886 681.708 446.054C679.669 445.221 677.891 443.946 676.4 442.229C674.91 440.511 674.178 438.247 674.178 435.437C674.178 433.147 674.858 431.04 676.217 429.14C677.577 427.241 679.512 425.731 682.048 424.639C684.585 423.546 687.487 422.999 690.808 422.999C695.724 422.999 699.672 424.248 702.679 426.694C705.686 429.166 707.281 432.549 707.491 436.79H698.548C698.391 434.865 697.607 433.33 696.195 432.185C694.783 431.04 692.874 430.467 690.468 430.467C688.062 430.467 686.311 430.91 685.055 431.794C683.8 432.679 683.173 433.85 683.173 435.307C683.173 436.452 683.591 437.415 684.428 438.195C685.265 438.976 686.284 439.601 687.487 440.043C688.69 440.485 690.468 441.058 692.821 441.734C695.959 442.567 698.548 443.426 700.561 444.284C702.575 445.143 704.301 446.392 705.791 448.083C707.255 449.749 708.014 451.96 708.066 454.719C708.066 457.164 707.386 459.35 706.026 461.276C704.667 463.201 702.758 464.711 700.248 465.803C697.737 466.896 694.835 467.443 691.514 467.443C688.193 467.443 685.082 466.818 682.362 465.595H682.388Z" fill="#5406FF"/>
<path d="M726.606 430.962V454.771C726.606 456.384 726.972 457.529 727.73 458.231C728.489 458.934 729.796 459.272 731.626 459.272H737.118V466.688H730.058C726.031 466.688 722.945 465.751 720.801 463.878C718.657 462.004 717.585 458.96 717.585 454.745V430.936H712.486V423.676H717.585V412.981H726.606V423.676H737.118V430.936H726.606V430.962Z" fill="#5406FF"/>
<path d="M743.498 433.538C745.302 430.207 747.76 427.631 750.872 425.783C753.983 423.936 757.409 423.025 761.2 423.025C764.6 423.025 767.554 423.676 770.117 425.003C772.653 426.33 774.667 427.995 776.183 429.973V423.728H785.205V466.74H776.183V460.339C774.667 462.369 772.601 464.06 769.986 465.413C767.371 466.766 764.39 467.443 761.044 467.443C757.33 467.443 753.931 466.506 750.846 464.58C747.76 462.681 745.302 460.027 743.498 456.618C741.694 453.209 740.805 449.358 740.805 445.013C740.805 440.667 741.694 436.868 743.498 433.538ZM774.327 437.441C773.098 435.255 771.503 433.59 769.516 432.445C767.528 431.3 765.384 430.727 763.083 430.727C760.782 430.727 758.638 431.3 756.651 432.419C754.663 433.538 753.042 435.177 751.839 437.337C750.61 439.496 749.983 442.046 749.983 445.039C749.983 448.031 750.584 450.607 751.839 452.845C753.068 455.083 754.689 456.774 756.703 457.945C758.716 459.116 760.834 459.688 763.109 459.688C765.384 459.688 767.554 459.116 769.542 457.971C771.529 456.826 773.15 455.161 774.353 452.923C775.556 450.685 776.21 448.109 776.21 445.169C776.21 442.228 775.582 439.626 774.353 437.441H774.327Z" fill="#5406FF"/>
<path d="M834.833 428.073C833.421 425.367 831.46 423.337 828.95 421.958C826.44 420.579 823.537 419.903 820.242 419.903C816.634 419.903 813.418 420.709 810.594 422.323C807.77 423.936 805.547 426.226 803.952 429.192C802.357 432.159 801.546 435.593 801.546 439.496C801.546 443.4 802.331 446.86 803.952 449.853C805.547 452.845 807.77 455.161 810.594 456.774C813.418 458.387 816.634 459.194 820.242 459.194C825.106 459.194 829.054 457.841 832.088 455.135C835.121 452.429 836.977 448.76 837.657 444.128H817.183V437.024H847.227V443.972C846.652 448.187 845.162 452.064 842.73 455.603C840.298 459.142 837.134 461.952 833.238 464.06C829.342 466.168 825.028 467.235 820.269 467.235C815.144 467.235 810.463 466.038 806.227 463.67C801.991 461.302 798.618 458.023 796.16 453.808C793.676 449.592 792.447 444.831 792.447 439.522C792.447 434.214 793.676 429.452 796.16 425.237C798.644 421.022 802.017 417.743 806.279 415.375C810.541 413.007 815.222 411.81 820.269 411.81C826.074 411.81 831.251 413.241 835.748 416.078C840.272 418.914 843.567 422.947 845.606 428.125H834.859L834.833 428.073Z" fill="#5406FF"/>
<path d="M854.184 433.538C855.988 430.207 858.446 427.631 861.557 425.783C864.669 423.936 868.094 423.025 871.886 423.025C875.285 423.025 878.24 423.676 880.803 425.003C883.339 426.33 885.352 427.995 886.869 429.973V423.728H895.89V466.74H886.869V460.339C885.352 462.369 883.287 464.06 880.672 465.413C878.057 466.766 875.076 467.443 871.729 467.443C868.016 467.443 864.617 466.506 861.531 464.58C858.446 462.681 855.988 460.027 854.184 456.618C852.379 453.209 851.49 449.358 851.49 445.013C851.49 440.667 852.379 436.868 854.184 433.538ZM885.012 437.441C883.783 435.255 882.188 433.59 880.201 432.445C878.214 431.3 876.07 430.727 873.769 430.727C871.468 430.727 869.323 431.3 867.336 432.419C865.349 433.538 863.728 435.177 862.525 437.337C861.296 439.496 860.668 442.046 860.668 445.039C860.668 448.031 861.27 450.607 862.525 452.845C863.754 455.083 865.375 456.774 867.388 457.945C869.402 459.116 871.52 459.688 873.795 459.688C876.07 459.688 878.24 459.116 880.227 457.971C882.215 456.826 883.836 455.161 885.039 452.923C886.241 450.685 886.895 448.109 886.895 445.169C886.895 442.228 886.268 439.626 885.039 437.441H885.012Z" fill="#5406FF"/>
<path d="M912.625 465.595C909.931 464.372 907.813 462.707 906.218 460.599C904.649 458.492 903.813 456.15 903.708 453.548H912.964C913.121 455.369 914.01 456.904 915.579 458.101C917.174 459.324 919.188 459.949 921.593 459.949C923.999 459.949 926.039 459.454 927.425 458.492C928.81 457.529 929.49 456.306 929.49 454.797C929.49 453.183 928.732 451.986 927.189 451.206C925.646 450.425 923.188 449.566 919.868 448.63C916.625 447.745 913.984 446.886 911.945 446.054C909.905 445.221 908.127 443.946 906.637 442.229C905.146 440.511 904.414 438.247 904.414 435.437C904.414 433.147 905.094 431.04 906.454 429.14C907.813 427.241 909.748 425.731 912.285 424.639C914.821 423.546 917.724 422.999 921.044 422.999C925.96 422.999 929.909 424.248 932.916 426.694C935.923 429.166 937.518 432.549 937.727 436.79H928.784C928.627 434.865 927.843 433.33 926.431 432.185C925.019 431.04 923.11 430.467 920.704 430.467C918.299 430.467 916.547 430.91 915.292 431.794C914.037 432.679 913.409 433.85 913.409 435.307C913.409 436.452 913.827 437.415 914.664 438.195C915.501 438.976 916.521 439.601 917.724 440.043C918.926 440.485 920.704 441.058 923.058 441.734C926.196 442.567 928.784 443.426 930.798 444.284C932.811 445.143 934.537 446.392 936.027 448.083C937.492 449.749 938.25 451.96 938.302 454.719C938.302 457.164 937.622 459.35 936.263 461.276C934.903 463.201 932.994 464.711 930.484 465.803C927.974 466.896 925.071 467.443 921.75 467.443C918.429 467.443 915.318 466.818 912.598 465.595H912.625Z" fill="#5406FF"/>
</g>
<defs>
<clipPath id="clip0_22_245">
<rect width="694.238" height="204.991" fill="white" transform="translate(353 286)"/>
</clipPath>
</defs>
</svg>
